<svg width="1893" height="1459" viewBox="0 0 1893 1459" fill="none" xmlns="http://www.w3.org/2000/svg">
<path d="M1658.15 369.279C1656.51 368.81 1655.57 370.218 1654.28 370.687C1650.41 372.096 1646.65 373.504 1642.66 374.795C1638.91 375.968 1639.61 377.494 1641.13 379.489C1642.9 381.836 1645.12 383.948 1647 386.178C1650.05 389.933 1653.46 393.219 1656.98 396.388C1659.44 398.618 1662.02 398.735 1664.72 398.383C1667.3 398.031 1670 397.914 1672.59 397.796C1681.15 397.209 1689.6 396.388 1698.05 395.449C1701.34 395.097 1704.62 394.98 1707.79 394.628C1709.2 394.51 1710.49 394.158 1711.66 393.571" stroke="black" stroke-width="2.34709" stroke-miterlimit="10" stroke-linecap="round" stroke-linejoin="round"/>
<path d="M1771.52 265.303C1771.4 271.523 1771.75 276.921 1771.28 282.437C1771.16 283.962 1772.22 284.08 1773.16 284.314C1783.84 286.779 1792.76 292.412 1799.92 300.744C1808.72 310.836 1813.88 322.689 1815.99 335.716C1819.75 357.896 1815.76 378.667 1803.67 397.679C1796.04 409.649 1785.83 418.803 1772.1 423.379C1755.32 429.013 1740.06 425.609 1726.45 414.461C1720.7 409.766 1716.24 404.016 1712.72 397.561C1711.78 395.801 1710.84 395.332 1708.85 395.801C1704.15 396.857 1699.23 396.74 1694.41 397.327C1684.09 398.5 1673.64 399.204 1663.2 400.026C1660.73 400.261 1658.62 399.791 1656.63 398.148C1651.58 394.158 1647.59 389.347 1643.48 384.418C1642.19 382.775 1640.55 381.484 1639.49 379.606C1637.85 376.79 1638.32 375.147 1641.37 373.973C1645.36 372.448 1649.47 371.509 1653.34 369.631C1658.39 367.284 1658.27 368.105 1657.56 362.59C1656.39 354.492 1655.22 346.395 1654.63 338.297C1654.04 329.731 1652.4 321.164 1654.04 312.597C1656.86 298.279 1664.14 287.013 1676.81 279.503C1682.21 276.334 1687.61 273.283 1693.24 270.701C1694.18 270.232 1694.77 269.762 1694.53 268.589C1691.95 254.506 1693.83 240.776 1696.76 227.045C1698.17 220.473 1699.93 214.019 1702.51 207.682C1703.57 204.865 1705.21 203.574 1708.38 203.34C1715.3 202.988 1722.23 201.931 1729.27 201.345C1735.61 200.758 1742.06 200.875 1748.4 202.049C1749.57 202.283 1750.51 202.87 1750.39 204.278C1750.27 205.804 1751.1 205.921 1752.39 205.921C1757.55 205.921 1762.71 205.687 1767.88 206.039C1772.81 206.391 1773.86 207.564 1774.68 213.784C1775.04 216.249 1774.68 218.713 1774.33 221.178C1774.1 222.351 1774.45 222.703 1775.62 222.468C1777.97 221.999 1780.2 221.53 1782.55 221.178C1783.6 221.06 1784.07 220.591 1784.07 219.535C1784.19 217.657 1785.36 216.835 1787.01 216.835C1792.64 216.601 1798.16 215.544 1803.79 215.075C1805.9 214.958 1807.19 216.483 1806.96 219.182C1806.84 220.473 1806.49 221.764 1806.25 223.055C1806.02 224.229 1805.08 224.933 1803.91 225.168C1798.74 225.989 1793.58 226.928 1788.53 227.749C1786.77 228.101 1785.6 227.397 1785.25 225.52C1785.01 223.759 1784.07 223.407 1782.43 223.759C1780.43 224.229 1778.44 224.463 1776.44 224.815C1774.45 225.168 1773.28 226.106 1772.81 228.219C1772.1 231.27 1772.22 234.439 1772.1 237.607C1771.75 246.996 1771.05 256.501 1771.52 265.303Z" fill="white"/>
<path d="M1770.11 284.666C1772.1 285.84 1774.45 285.84 1776.56 286.544C1786.3 289.713 1794.28 295.463 1800.62 303.326C1807.66 312.01 1811.89 322.102 1814.35 332.899C1815.52 338.063 1816.23 343.226 1815.99 348.507C1815.88 351.324 1816.23 354.258 1815.88 357.074C1815.17 364.467 1813.88 371.626 1811.42 378.667C1806.96 391.694 1799.92 402.96 1789.47 411.996C1782.66 417.864 1774.8 421.971 1765.77 423.614C1750.98 426.313 1738.19 422.558 1726.69 412.818C1721.05 408.006 1716.83 402.256 1713.31 395.918C1709.55 389.112 1707.21 381.836 1705.8 374.208C1704.86 369.044 1704.27 363.881 1704.27 358.717C1704.27 352.145 1704.98 345.573 1706.5 339.119C1708.26 332.078 1710.61 325.271 1713.89 318.699C1719.41 308.137 1726.92 299.336 1736.9 292.646C1743.12 288.539 1750.04 285.957 1757.32 284.784C1760.72 284.314 1764.24 284.08 1767.64 284.784C1768.35 284.901 1769.05 284.666 1769.76 284.666" stroke="black" stroke-width="2.34709" stroke-miterlimit="10" stroke-linecap="round" stroke-linejoin="round"/>
<path d="M1762.24 293.233C1758.14 293.468 1754.38 294.876 1750.74 296.519C1739.13 301.918 1730.79 310.836 1724.46 321.75C1719.18 331.021 1716.01 341.114 1714.83 351.676C1713.54 363.529 1714.83 375.147 1719.29 386.178C1723.87 397.327 1731.15 406.246 1742.18 411.409C1746.64 413.522 1751.33 414.578 1756.26 414.813C1767.88 415.165 1777.62 411.057 1786.42 403.781C1791.11 399.909 1794.99 395.332 1798.51 390.52" stroke="black" stroke-width="2.34709" stroke-miterlimit="10" stroke-linecap="round" stroke-linejoin="round"/>
<path d="M1726.22 280.559C1724.1 280.089 1722.46 281.38 1720.7 282.202C1711.08 286.661 1701.22 290.417 1691.83 295.346C1686.67 298.045 1681.39 300.744 1677.28 305.086C1671.41 311.54 1668.48 319.169 1668.01 327.853C1667.77 333.134 1668.24 338.415 1668.48 343.696C1668.83 350.15 1669.65 356.487 1671.06 362.707C1671.88 366.228 1672.59 369.866 1673.06 373.504C1673.52 377.142 1672.59 380.545 1669.42 382.892C1667.66 384.3 1666.01 385.826 1664.25 387.352C1663.67 387.821 1662.96 388.408 1663.32 389.347C1663.67 390.285 1664.49 390.755 1665.66 390.755C1668.24 390.872 1670.59 389.933 1673.06 389.347C1677.28 388.408 1681.51 387.704 1685.85 387.234C1689.25 386.765 1692.65 386.061 1696.06 385.709C1698.17 385.474 1700.28 385.591 1702.28 384.77C1704.04 384.066 1705.8 383.831 1707.56 383.479" stroke="black" stroke-width="2.34709" stroke-miterlimit="10" stroke-linecap="round" stroke-linejoin="round"/>
<path d="M1696.06 270.936C1688.43 274.222 1681.15 278.095 1674.35 282.906C1662.38 291.121 1656.74 302.974 1655.1 317.056C1654.63 321.164 1655.33 325.154 1655.57 329.261C1655.8 333.369 1656.04 337.359 1656.51 341.466C1657.33 347.451 1657.68 353.436 1658.74 359.304C1659.21 362.003 1659.79 364.702 1659.21 367.519C1658.62 370.218 1658.03 372.8 1655.34 374.443C1653.69 375.499 1652.05 377.142 1650.88 379.254C1653.46 380.545 1655.8 379.372 1658.15 379.137C1660.5 378.902 1662.85 378.902 1665.19 378.667C1667.66 378.433 1670.12 377.846 1672.47 376.907" stroke="black" stroke-width="2.34709" stroke-miterlimit="10" stroke-linecap="round" stroke-linejoin="round"/>
<path d="M1749.1 204.278C1751.92 211.789 1752.97 219.652 1754.62 227.397C1756.96 238.546 1758.25 249.812 1759.43 261.078C1759.78 264.716 1760.13 268.589 1759.31 271.992C1758.49 275.513 1758.96 279.268 1757.08 282.554C1756.73 283.258 1757.08 283.845 1757.08 284.549" stroke="black" stroke-width="2.34709" stroke-miterlimit="10" stroke-linecap="round" stroke-linejoin="round"/>
<path d="M1705.45 205.452C1704.27 206.978 1703.69 208.738 1703.1 210.498C1698.87 222.116 1696.53 234.204 1695.24 246.526C1694.53 253.919 1694.88 261.195 1696.06 268.471C1696.64 272.461 1698.4 275.982 1699.81 279.62C1700.05 280.089 1700.28 280.676 1700.16 281.146" stroke="black" stroke-width="2.34709" stroke-miterlimit="10" stroke-linecap="round" stroke-linejoin="round"/>
<path d="M1785.72 221.764C1785.72 221.177 1785.72 220.591 1785.72 220.004C1785.6 218.83 1786.18 218.244 1787.24 218.009C1787.71 217.891 1788.3 217.774 1788.77 217.774C1793.46 218.126 1797.92 216.718 1802.5 216.366C1805.31 216.131 1806.25 216.835 1805.67 219.769C1805.67 220.004 1805.67 220.356 1805.67 220.591C1805.31 222.116 1805.2 223.642 1802.73 223.877C1799.92 224.229 1797.1 224.581 1794.28 225.285C1792.76 225.754 1791.11 225.989 1789.59 226.341C1787.12 226.928 1786.54 226.458 1786.42 223.994C1786.42 223.29 1786.3 222.586 1785.6 221.999C1782.08 222.938 1778.32 223.29 1774.57 224.111C1772.69 224.463 1772.22 225.637 1771.87 226.928C1771.52 228.571 1771.16 230.214 1771.05 231.857C1770.69 237.607 1770.58 243.357 1770.22 249.108C1769.87 254.506 1769.76 259.904 1769.87 265.42C1769.99 269.293 1770.11 273.283 1769.99 277.156C1769.99 279.62 1769.76 282.084 1769.64 284.549" stroke="black" stroke-width="2.34709" stroke-miterlimit="10" stroke-linecap="round" stroke-linejoin="round"/>
<path d="M1773.16 224.229C1772.46 222.586 1773.28 221.06 1773.39 219.535C1773.51 216.483 1773.86 213.432 1772.92 210.264C1772.22 208.269 1771.05 207.564 1769.29 207.33C1763.65 206.86 1757.9 207.212 1752.27 207.095C1751.68 207.095 1751.21 207.564 1750.74 207.564" stroke="black" stroke-width="2.34709" stroke-miterlimit="10" stroke-linecap="round" stroke-linejoin="round"/>
<path d="M1752.97 372.682C1753.09 374.443 1751.8 375.616 1750.98 377.024C1746.75 384.418 1743.12 392.163 1739.24 399.791C1738.54 401.317 1737.84 402.842 1737.72 404.485" stroke="black" stroke-width="2.34709" stroke-miterlimit="10" stroke-linecap="round" stroke-linejoin="round"/>
<path d="M1762.6 304.851C1762.83 312.362 1762.13 319.755 1761.66 327.149C1761.54 328.557 1761.42 329.965 1761.31 331.491" stroke="black" stroke-width="2.34709" stroke-miterlimit="10" stroke-linecap="round" stroke-linejoin="round"/>
<path d="M1758.96 345.926C1754.73 348.39 1751.8 351.793 1751.33 356.957C1750.86 361.768 1753.68 365.289 1758.26 366.345C1765.65 367.988 1773.63 362.355 1775.39 356.018" stroke="black" stroke-width="2.34709" stroke-miterlimit="10" stroke-linecap="round" stroke-linejoin="round"/>
<path d="M1720.47 338.767C1722.58 338.767 1724.22 340.058 1725.98 340.997C1731.62 343.93 1737.25 346.864 1742.41 350.62C1743.94 351.676 1745.58 352.615 1746.87 353.906" stroke="black" stroke-width="2.34709" stroke-miterlimit="10" stroke-linecap="round" stroke-linejoin="round"/>
<path d="M1778.91 371.039C1779.03 373.152 1780.32 374.677 1781.49 376.32C1784.31 380.545 1787.12 384.77 1791.35 387.821" stroke="black" stroke-width="2.34709" stroke-miterlimit="10" stroke-linecap="round" stroke-linejoin="round"/>
<path d="M1798.27 340.527C1794.28 342.64 1790.06 344.283 1785.95 346.043C1785.36 346.278 1784.66 346.512 1784.19 346.982" stroke="black" stroke-width="2.34709" stroke-miterlimit="10" stroke-linecap="round" stroke-linejoin="round"/>
<path d="M1708.97 395.566C1704.27 396.623 1699.34 396.505 1694.53 397.092C1684.2 398.266 1673.76 398.97 1663.32 399.791C1660.85 400.026 1658.74 399.556 1656.74 397.914C1651.7 393.923 1647.71 389.112 1643.6 384.183C1642.31 382.54 1640.67 381.249 1639.61 379.371C1637.97 376.555 1638.44 374.912 1641.49 373.738C1645.48 372.213 1649.58 371.274 1653.46 369.396C1658.5 367.049 1659.91 368.223 1659.09 362.824" stroke="black" stroke-width="2.34709" stroke-miterlimit="10" stroke-linecap="round" stroke-linejoin="round"/>
<path d="M1755.69 178.144C1755.69 184.044 1755.59 190.244 1754.69 196.444C1754.49 197.544 1754.09 198.144 1752.99 198.544C1745.39 201.044 1737.59 202.844 1729.69 203.544C1721.79 204.244 1713.89 204.644 1706.09 202.444C1703.19 201.644 1701.49 200.544 1700.89 197.044C1699.19 186.844 1697.89 176.644 1697.69 166.244C1697.59 163.344 1697.79 160.444 1697.99 157.544C1698.09 156.244 1697.59 156.044 1696.39 156.544C1691.49 158.344 1686.29 159.044 1681.09 159.644C1679.39 159.844 1678.59 159.144 1678.39 157.544C1677.49 150.744 1678.09 144.044 1680.89 137.644C1684.19 129.844 1688.79 122.844 1694.99 117.144C1699.59 112.844 1704.79 109.644 1710.99 108.244C1716.09 107.044 1721.29 106.644 1726.49 107.344C1733.69 108.244 1738.99 112.044 1742.49 118.444C1747.09 127.044 1750.29 136.244 1752.49 145.744C1754.79 156.244 1755.89 167.044 1755.69 178.144Z" fill="white"/>
<path d="M1753.29 197.444C1753.59 194.944 1753.99 192.444 1754.19 189.844C1754.69 183.444 1754.39 177.044 1754.39 170.744C1754.39 167.044 1753.79 163.344 1753.49 159.644C1752.89 152.944 1751.49 146.444 1749.79 140.044C1748.79 136.344 1747.29 132.744 1745.99 129.144C1744.29 124.644 1742.39 120.344 1739.69 116.244C1736.59 111.644 1732.19 109.444 1726.99 108.544C1723.49 107.944 1720.09 108.244 1716.59 108.544C1712.79 108.844 1709.29 109.644 1705.89 111.244C1701.59 113.244 1697.69 115.844 1694.39 119.244C1689.69 124.144 1685.89 129.644 1682.99 135.744C1679.99 141.944 1678.69 148.444 1679.39 155.344C1679.69 158.844 1679.69 158.944 1682.99 158.444C1687.19 157.744 1691.39 157.244 1695.39 155.844C1695.89 155.644 1696.39 155.444 1696.89 155.244C1698.39 154.444 1698.99 154.844 1698.99 156.744C1698.99 159.844 1698.89 162.944 1698.89 165.944C1698.89 170.844 1699.49 175.744 1699.79 180.644C1700.09 186.144 1701.49 191.544 1702.19 196.944C1702.29 197.844 1702.59 198.844 1702.79 199.744" stroke="black" stroke-width="2" stroke-miterlimit="10" stroke-linecap="round" stroke-linejoin="round"/>
<path d="M1728 171.216C1724.1 174.116 1719.5 173.916 1715 173.716C1713.7 173.616 1712.4 172.916 1711.1 172.416" stroke="black" stroke-width="2" stroke-miterlimit="10" stroke-linecap="round" stroke-linejoin="round"/>
<path d="M1725.2 138.716C1722.6 136.216 1719.3 135.916 1715.9 136.016" stroke="black" stroke-width="2" stroke-miterlimit="10" stroke-linecap="round" stroke-linejoin="round"/>
<path d="M1727.2 147.016C1724 145.916 1721 146.016 1718.3 148.216" stroke="black" stroke-width="2" stroke-miterlimit="10" stroke-linecap="round" stroke-linejoin="round"/>
<path d="M1707.5 137.916C1706.5 137.716 1705.6 138.216 1704.8 138.816C1703.2 139.916 1701.6 140.916 1700.2 142.316C1699.9 142.616 1699.5 142.916 1699 142.816" stroke="black" stroke-width="2" stroke-miterlimit="10" stroke-linecap="round" stroke-linejoin="round"/>
<path d="M1710.7 148.016C1708 147.516 1705.6 147.816 1703.8 150.016" stroke="black" stroke-width="2" stroke-miterlimit="10" stroke-linecap="round" stroke-linejoin="round"/>
<path d="M1758.6 130.842C1758.5 138.642 1758.1 144.442 1756.4 150.142C1756.2 150.942 1756.3 151.842 1756 152.542C1755.6 153.842 1753.2 155.042 1751.8 154.842C1750.2 154.642 1749.7 153.342 1749.6 151.942C1749.3 150.042 1749.2 148.142 1749 146.242C1748.8 144.842 1748.3 143.542 1747.6 142.342C1747.4 141.942 1747.1 141.342 1746.5 141.442C1745.9 141.542 1745.8 142.142 1745.7 142.542C1745 145.242 1744.4 147.942 1743.7 150.742C1743.4 151.742 1743.1 152.742 1742.5 153.642C1741.4 155.342 1739.7 155.242 1738.8 153.442C1737.9 151.642 1737.6 149.542 1737.4 147.542C1736.8 141.842 1736.3 136.042 1735.7 130.342C1735.5 128.742 1735.3 127.142 1734.9 125.642C1733.4 120.042 1728.9 117.442 1722.3 118.442C1719.5 118.842 1716.9 119.742 1714.2 120.742C1710.9 122.042 1707.6 122.942 1704.1 122.542C1702.8 122.442 1701.5 122.142 1700.3 121.642C1699.2 121.142 1698.2 120.542 1696.9 120.442C1695.9 120.342 1695.3 119.542 1694.9 118.642C1692.6 113.842 1691.4 108.842 1692.3 103.442C1692.4 102.642 1692.8 101.842 1693.1 101.142C1694.6 98.342 1696.9 97.942 1698.9 100.242C1702.7 104.742 1705.6 104.142 1710.2 102.142C1715.5 99.842 1721 98.442 1726.6 97.442C1741.2 95.042 1751.1 102.642 1755.7 114.742C1757.8 120.742 1758.7 126.742 1758.6 130.842Z" fill="white"/>
<path d="M1746.2 140.342C1747.9 140.342 1748.3 141.842 1748.8 142.942C1749.8 145.042 1750 147.342 1750.1 149.742C1750.1 150.142 1750.1 150.642 1750.1 151.042C1750.3 152.242 1750.4 153.542 1751.7 154.042C1752.7 154.342 1754.9 153.042 1755.1 151.942C1755.9 148.442 1756.9 144.942 1757.3 141.342C1757.7 137.642 1757.6 133.942 1757.6 130.242C1757.7 123.242 1756 116.542 1752.6 110.442C1749.6 105.042 1745.2 100.842 1739.1 99.042C1734.8 97.742 1730.5 97.6421 1726.1 98.4421C1722 99.2421 1717.9 100.042 1713.9 101.442C1711.8 102.142 1709.9 103.142 1707.8 103.842C1706.3 104.342 1704.6 104.442 1703 104.342C1702 104.342 1701.3 103.542 1700.5 103.042C1699.5 102.242 1698.7 101.342 1697.8 100.442C1696.3 99.0421 1695.4 99.142 1694 100.742C1693.1 101.742 1692.6 103.042 1692.6 104.242C1692.4 108.942 1692.8 113.542 1695.2 117.742C1695.9 118.942 1696.5 120.142 1698.2 119.742C1698.4 119.742 1698.6 119.942 1698.9 120.042C1703.2 122.442 1707.6 122.242 1712.1 120.542C1714.9 119.442 1717.7 118.342 1720.7 117.742C1725.3 116.842 1729.7 116.842 1733.2 120.542C1735.2 122.642 1735.8 125.342 1736.1 128.142C1736.7 132.942 1736.9 137.742 1737.5 142.442C1737.9 145.342 1737.9 148.242 1738.8 151.042C1739.2 152.142 1739.3 153.742 1740.8 153.742C1742.2 153.742 1742.4 152.142 1742.7 151.042C1743.4 148.742 1743.8 146.342 1744.4 143.942C1744.7 142.642 1744.8 141.242 1745.9 140.342" stroke="black" stroke-width="2" stroke-miterlimit="10" stroke-linecap="round" stroke-linejoin="round"/>
<path d="M1832.37 108.517C1833.47 107.217 1834.37 106.117 1835.37 105.117C1836.07 104.417 1836.87 103.717 1837.97 104.117C1839.07 104.617 1838.97 105.717 1839.07 106.717C1839.17 108.017 1838.47 109.117 1838.27 110.717C1839.57 109.817 1840.47 109.017 1841.47 108.417C1842.17 107.917 1843.07 107.417 1843.87 108.117C1844.77 108.817 1844.37 109.817 1843.97 110.717C1843.47 111.817 1842.97 112.817 1842.27 114.317C1843.37 113.817 1844.17 113.417 1844.97 113.217C1846.17 112.817 1847.37 112.617 1848.37 113.717C1849.37 114.817 1849.27 116.017 1848.67 117.217C1847.67 119.517 1845.87 121.317 1844.27 123.117C1839.47 128.317 1836.07 134.417 1832.47 140.417C1828.97 146.317 1825.17 152.017 1821.47 157.817C1818.57 162.417 1816.17 167.317 1813.27 171.917C1807.27 181.617 1800.27 190.417 1792.57 198.717C1786.77 205.017 1780.87 211.117 1773.87 216.117C1768.47 220.017 1762.97 223.517 1756.17 224.517C1755.97 224.517 1755.77 224.517 1755.67 224.617C1754.27 226.617 1753.37 225.017 1752.57 224.117C1749.17 220.317 1747.37 215.817 1746.27 210.817C1745.37 206.217 1745.07 201.717 1745.67 197.017C1745.87 195.717 1746.17 195.217 1747.57 195.817C1750.07 196.817 1752.57 196.317 1754.97 195.617C1761.77 193.517 1767.47 189.417 1772.47 184.517C1781.07 176.017 1787.87 166.217 1794.47 156.117C1798.87 149.417 1802.97 142.517 1807.77 136.017C1808.17 135.417 1808.37 134.817 1808.47 134.217C1809.97 126.917 1810.97 119.617 1811.97 112.217C1812.07 111.317 1812.37 110.517 1812.57 109.717C1812.97 108.717 1813.57 107.817 1814.77 107.817C1816.07 107.817 1816.97 108.517 1817.47 109.717C1818.37 112.017 1818.47 114.417 1818.67 116.817C1818.67 117.617 1818.27 118.817 1819.07 119.017C1819.97 119.217 1820.17 118.017 1820.47 117.317C1821.67 115.217 1822.77 113.017 1823.87 110.917C1824.87 108.917 1826.17 107.117 1827.87 105.717C1828.67 105.017 1829.57 104.317 1830.67 104.717C1831.87 105.117 1831.67 106.317 1831.77 107.217C1832.17 107.717 1832.27 107.917 1832.37 108.517Z" fill="white"/>
<path d="M1617.07 148.817C1617.47 147.817 1616.97 146.917 1617.07 146.017C1617.17 145.117 1617.17 144.017 1618.27 143.717C1619.27 143.517 1619.87 144.217 1620.37 144.917C1620.97 145.817 1621.57 146.717 1622.17 147.717C1622.17 147.817 1622.37 147.817 1622.77 147.917C1622.77 146.317 1622.77 144.817 1622.77 143.317C1622.77 142.317 1622.67 141.017 1624.07 140.817C1625.37 140.617 1626.07 141.617 1626.57 142.517C1628.17 145.517 1629.17 148.817 1630.17 152.117C1630.47 153.017 1630.77 153.917 1631.17 155.117C1631.97 153.917 1631.87 152.817 1631.97 151.717C1632.17 150.517 1632.27 149.317 1632.67 148.117C1633.17 146.517 1634.27 146.217 1635.47 147.417C1636.87 148.817 1637.37 150.617 1637.47 152.517C1637.57 157.117 1637.87 161.617 1638.07 166.217C1638.17 167.817 1638.57 169.117 1639.57 170.317C1651.57 185.517 1666.57 196.017 1685.87 199.617C1688.87 200.217 1691.77 201.017 1694.77 201.217C1696.57 201.317 1706.7 202.2 1707 204C1707.8 209.6 1698.27 215.117 1696.37 220.417C1696.07 221.317 1695.57 221.617 1694.67 221.517C1673.57 221.117 1654.57 214.917 1638.37 201.017C1630.77 194.517 1624.67 186.817 1620.27 177.817C1617.97 173.117 1615.27 168.717 1612.77 164.117C1611.07 161.117 1609.67 158.117 1609.07 154.617C1608.97 153.817 1608.97 153.017 1609.17 152.117C1609.57 150.417 1610.17 150.017 1611.67 150.817C1612.37 151.117 1612.67 151.217 1612.57 150.317C1612.47 149.117 1611.97 147.617 1613.47 146.917C1614.97 146.317 1615.97 147.417 1616.87 148.517C1616.87 148.717 1616.87 148.717 1617.07 148.817Z" fill="white"/>
<path d="M1838.07 118.917C1839.77 115.817 1842.97 115.117 1845.77 113.817C1846.67 113.417 1847.27 113.617 1847.87 114.217C1848.57 114.817 1848.57 115.817 1848.37 116.517C1847.97 117.817 1847.27 119.017 1846.27 120.017C1839.97 126.117 1835.77 133.817 1831.27 141.217C1828.57 145.717 1825.97 150.217 1822.87 154.417C1820.97 156.917 1819.77 159.817 1818.27 162.517C1813.47 170.917 1808.37 179.117 1802.27 186.617C1798.87 190.817 1795.37 194.817 1791.77 198.817C1788.87 202.017 1785.77 205.217 1782.67 208.117C1777.07 213.417 1770.97 218.217 1763.87 221.517C1761.27 222.717 1758.77 223.617 1755.97 223.917C1755.17 224.017 1754.27 224.017 1754.67 225.217" stroke="black" stroke-width="2" stroke-miterlimit="10" stroke-linecap="round" stroke-linejoin="round"/>
<path d="M1612.87 152.717C1612.27 152.717 1611.87 152.317 1611.37 151.917C1610.37 151.117 1609.77 151.317 1609.57 152.717C1609.37 154.017 1609.67 155.417 1610.07 156.717C1611.27 160.617 1613.47 164.017 1615.27 167.617C1617.97 172.917 1620.77 178.117 1623.77 183.217C1628.87 191.917 1635.87 199.017 1643.97 204.817C1650.97 209.817 1658.57 213.717 1666.77 216.317C1673.57 218.517 1680.47 220.017 1687.67 220.417C1690.07 220.517 1692.37 220.617 1694.77 220.817C1695.47 220.917 1695.67 221.017 1695.57 221.717" stroke="black" stroke-width="2" stroke-miterlimit="10" stroke-linecap="round" stroke-linejoin="round"/>
<path d="M1819.07 121.117C1817.87 119.217 1818.17 117.117 1818.07 115.117C1817.97 113.317 1817.77 111.617 1817.07 110.017C1816.77 109.317 1816.17 108.417 1815.17 108.517C1814.27 108.617 1813.87 109.417 1813.47 110.317C1812.77 111.917 1812.77 113.717 1812.57 115.417C1811.87 121.317 1810.67 127.117 1809.87 132.917C1809.57 135.017 1808.67 136.617 1807.57 138.117C1803.57 143.517 1800.07 149.317 1796.37 155.017C1791.67 162.317 1786.87 169.517 1781.27 176.317C1777.47 180.917 1773.47 185.217 1768.87 189.017C1764.67 192.517 1759.97 195.217 1754.57 196.617C1752.17 197.317 1749.87 197.117 1747.47 196.917C1747.07 196.917 1747.17 196.517 1747.17 196.217" stroke="black" stroke-width="2" stroke-miterlimit="10" stroke-linecap="round" stroke-linejoin="round"/>
<path d="M1631.87 157.317C1632.57 156.317 1632.77 155.117 1632.67 153.917C1632.57 152.217 1632.97 150.517 1633.27 148.817C1633.37 148.317 1633.57 147.817 1634.17 147.617C1635.77 148.517 1636.27 149.917 1636.57 151.617C1636.97 153.617 1636.87 155.717 1636.87 157.717C1636.87 159.817 1636.77 162.017 1637.17 164.117C1637.27 164.617 1637.37 165.317 1637.17 165.717C1636.57 167.317 1637.27 168.717 1638.17 169.817C1645.77 179.517 1654.47 188.017 1665.67 193.617C1672.77 197.117 1680.27 199.317 1687.97 200.917C1690.87 201.517 1700 203 1704 203" stroke="black" stroke-width="2" stroke-miterlimit="10" stroke-linecap="round" stroke-linejoin="round"/>
<path d="M1632.37 160.317C1632.17 158.917 1631.97 157.617 1631.07 156.417C1629.97 154.717 1629.67 152.517 1629.07 150.517C1628.37 148.217 1627.57 145.817 1626.47 143.717C1625.57 142.117 1625.57 142.117 1623.97 141.617C1623.57 145.817 1623.17 149.817 1624.87 153.717" stroke="black" stroke-width="2" stroke-miterlimit="10" stroke-linecap="round" stroke-linejoin="round"/>
<path d="M1829.27 115.817C1829.47 115.317 1829.57 114.717 1829.97 114.317C1831.87 112.117 1831.47 109.417 1831.37 106.917C1831.37 105.617 1830.27 105.117 1829.27 105.917C1827.07 107.617 1825.47 109.817 1824.27 112.317C1823.17 114.617 1821.87 116.917 1820.67 119.217C1820.37 119.717 1820.07 120.217 1819.67 120.517C1818.87 121.217 1818.67 122.017 1819.07 123.017" stroke="black" stroke-width="2" stroke-miterlimit="10" stroke-linecap="round" stroke-linejoin="round"/>
<path d="M1623.27 149.917C1622.07 149.517 1621.77 148.317 1621.17 147.417C1620.67 146.717 1620.27 146.017 1619.87 145.217C1619.57 144.617 1619.07 144.417 1618.57 144.617C1618.17 144.817 1617.77 145.317 1617.87 145.917C1618.37 148.517 1617.57 151.417 1619.27 153.817C1619.77 154.517 1619.97 155.417 1619.97 156.317" stroke="black" stroke-width="2" stroke-miterlimit="10" stroke-linecap="round" stroke-linejoin="round"/>
<path d="M1831.97 110.317C1833.27 109.717 1833.57 108.317 1834.47 107.317C1834.97 106.817 1835.27 106.217 1835.77 105.717C1836.37 105.117 1837.07 104.517 1837.87 104.917C1838.67 105.317 1838.37 106.317 1838.37 107.017C1838.37 107.917 1838.17 108.717 1837.77 109.517C1837.27 110.417 1837.07 111.317 1837.47 112.317" stroke="black" stroke-width="2" stroke-miterlimit="10" stroke-linecap="round" stroke-linejoin="round"/>
<path d="M1841.37 115.417C1841.27 114.517 1841.57 113.717 1842.17 112.917C1842.77 112.117 1843.37 111.217 1843.47 110.117C1843.47 109.617 1843.77 109.117 1843.17 108.817C1842.67 108.517 1842.37 108.917 1841.97 109.017C1841.07 109.217 1840.67 110.017 1839.97 110.517C1837.67 112.117 1835.57 113.917 1834.47 116.617" stroke="black" stroke-width="2" stroke-miterlimit="10" stroke-linecap="round" stroke-linejoin="round"/>
<path d="M1613.87 147.117C1612.97 148.317 1613.47 149.717 1613.27 151.017C1612.87 153.917 1615.07 155.817 1615.57 158.317" stroke="black" stroke-width="2" stroke-miterlimit="10" stroke-linecap="round" stroke-linejoin="round"/>
<path d="M1614.07 147.717C1615.07 147.817 1615.67 148.417 1616.17 149.317C1616.57 149.917 1617.07 150.317 1617.67 150.617" stroke="black" stroke-width="2" stroke-miterlimit="10" stroke-linecap="round" stroke-linejoin="round"/>
<path d="M249.849 1361.28C251.492 1360.81 252.431 1362.22 253.722 1362.69C257.594 1364.1 261.35 1365.5 265.34 1366.79C269.095 1367.97 268.391 1369.49 266.865 1371.49C265.105 1373.84 262.875 1375.95 260.998 1378.18C257.946 1381.93 254.543 1385.22 251.023 1388.39C248.558 1390.62 245.976 1390.74 243.277 1390.38C240.695 1390.03 237.996 1389.91 235.414 1389.8C226.848 1389.21 218.398 1388.39 209.948 1387.45C206.663 1387.1 203.377 1386.98 200.208 1386.63C198.8 1386.51 197.509 1386.16 196.335 1385.57" stroke="black" stroke-width="2.34709" stroke-miterlimit="10" stroke-linecap="round" stroke-linejoin="round"/>
<path d="M136.484 1257.3C136.601 1263.52 136.249 1268.92 136.719 1274.44C136.836 1275.96 135.78 1276.08 134.841 1276.31C124.162 1278.78 115.243 1284.41 108.084 1292.74C99.2827 1302.84 94.119 1314.69 92.0066 1327.72C88.2513 1349.9 92.2413 1370.67 104.329 1389.68C111.957 1401.65 122.167 1410.8 135.897 1415.38C152.679 1421.01 167.935 1417.61 181.548 1406.46C187.299 1401.77 191.758 1396.02 195.279 1389.56C196.218 1387.8 197.156 1387.33 199.151 1387.8C203.846 1388.86 208.775 1388.74 213.586 1389.33C223.913 1390.5 234.358 1391.2 244.802 1392.03C247.267 1392.26 249.379 1391.79 251.374 1390.15C256.42 1386.16 260.41 1381.35 264.518 1376.42C265.809 1374.77 267.452 1373.48 268.508 1371.61C270.151 1368.79 269.682 1367.15 266.63 1365.97C262.64 1364.45 258.533 1363.51 254.66 1361.63C249.614 1359.28 249.731 1360.11 250.435 1354.59C251.609 1346.49 252.782 1338.39 253.369 1330.3C253.956 1321.73 255.599 1313.16 253.956 1304.6C251.139 1290.28 243.864 1279.01 231.189 1271.5C225.791 1268.33 220.393 1265.28 214.76 1262.7C213.821 1262.23 213.234 1261.76 213.469 1260.59C216.05 1246.51 214.173 1232.78 211.239 1219.05C209.831 1212.47 208.07 1206.02 205.489 1199.68C204.432 1196.87 202.789 1195.57 199.621 1195.34C192.697 1194.99 185.773 1193.93 178.732 1193.34C172.395 1192.76 165.94 1192.88 159.603 1194.05C158.429 1194.28 157.491 1194.87 157.608 1196.28C157.725 1197.8 156.904 1197.92 155.613 1197.92C150.449 1197.92 145.286 1197.69 140.122 1198.04C135.193 1198.39 134.137 1199.56 133.316 1205.78C132.963 1208.25 133.315 1210.71 133.668 1213.18C133.902 1214.35 133.55 1214.7 132.377 1214.47C130.03 1214 127.8 1213.53 125.453 1213.18C124.396 1213.06 123.927 1212.59 123.927 1211.53C123.81 1209.66 122.636 1208.84 120.993 1208.84C115.36 1208.6 109.845 1207.54 104.212 1207.08C102.099 1206.96 100.808 1208.48 101.043 1211.18C101.16 1212.47 101.512 1213.76 101.747 1215.06C101.982 1216.23 102.921 1216.93 104.094 1217.17C109.258 1217.99 114.421 1218.93 119.468 1219.75C121.228 1220.1 122.402 1219.4 122.754 1217.52C122.988 1215.76 123.927 1215.41 125.57 1215.76C127.565 1216.23 129.56 1216.46 131.555 1216.82C133.55 1217.17 134.724 1218.11 135.193 1220.22C135.897 1223.27 135.78 1226.44 135.897 1229.61C136.249 1239 136.953 1248.5 136.484 1257.3Z" fill="white"/>
<path d="M137.892 1276.67C135.897 1277.84 133.55 1277.84 131.438 1278.54C121.697 1281.71 113.717 1287.46 107.38 1295.33C100.339 1304.01 96.1138 1314.1 93.6494 1324.9C92.4758 1330.06 91.7717 1335.23 92.0064 1340.51C92.1237 1343.32 91.7718 1346.26 92.1238 1349.07C92.828 1356.47 94.1188 1363.63 96.5832 1370.67C101.043 1383.69 108.084 1394.96 118.529 1404C125.335 1409.86 133.198 1413.97 142.234 1415.61C157.021 1418.31 169.813 1414.56 181.313 1404.82C186.946 1400.01 191.171 1394.26 194.692 1387.92C198.447 1381.11 200.794 1373.84 202.202 1366.21C203.141 1361.04 203.728 1355.88 203.728 1350.72C203.728 1344.15 203.024 1337.57 201.498 1331.12C199.738 1324.08 197.391 1317.27 194.105 1310.7C188.589 1300.14 181.079 1291.34 171.103 1284.65C164.884 1280.54 157.96 1277.96 150.684 1276.78C147.28 1276.31 143.76 1276.08 140.357 1276.78C139.652 1276.9 138.948 1276.67 138.244 1276.67" stroke="black" stroke-width="2.34709" stroke-miterlimit="10" stroke-linecap="round" stroke-linejoin="round"/>
<path d="M145.755 1285.23C149.862 1285.47 153.618 1286.88 157.256 1288.52C168.874 1293.92 177.206 1302.84 183.543 1313.75C188.824 1323.02 191.993 1333.11 193.166 1343.68C194.457 1355.53 193.166 1367.15 188.707 1378.18C184.13 1389.33 176.854 1398.25 165.823 1403.41C161.363 1405.52 156.669 1406.58 151.74 1406.81C140.122 1407.16 130.382 1403.06 121.58 1395.78C116.886 1391.91 113.013 1387.33 109.492 1382.52" stroke="black" stroke-width="2.34709" stroke-miterlimit="10" stroke-linecap="round" stroke-linejoin="round"/>
<path d="M181.783 1272.56C183.895 1272.09 185.538 1273.38 187.298 1274.2C196.922 1278.66 206.779 1282.42 216.168 1287.35C221.331 1290.04 226.612 1292.74 230.72 1297.09C236.587 1303.54 239.521 1311.17 239.991 1319.85C240.225 1325.13 239.756 1330.41 239.521 1335.7C239.169 1342.15 238.348 1348.49 236.939 1354.71C236.118 1358.23 235.414 1361.87 234.944 1365.5C234.475 1369.14 235.414 1372.54 238.582 1374.89C240.343 1376.3 241.986 1377.83 243.746 1379.35C244.333 1379.82 245.037 1380.41 244.685 1381.35C244.333 1382.29 243.511 1382.75 242.338 1382.75C239.756 1382.87 237.409 1381.93 234.944 1381.35C230.72 1380.41 226.495 1379.7 222.153 1379.23C218.749 1378.76 215.346 1378.06 211.943 1377.71C209.831 1377.47 207.718 1377.59 205.723 1376.77C203.963 1376.07 202.202 1375.83 200.442 1375.48" stroke="black" stroke-width="2.34709" stroke-miterlimit="10" stroke-linecap="round" stroke-linejoin="round"/>
<path d="M211.943 1262.94C219.571 1266.22 226.847 1270.09 233.654 1274.91C245.624 1283.12 251.257 1294.97 252.9 1309.06C253.369 1313.16 252.665 1317.15 252.43 1321.26C252.196 1325.37 251.961 1329.36 251.491 1333.47C250.67 1339.45 250.318 1345.44 249.262 1351.3C248.792 1354 248.206 1356.7 248.792 1359.52C249.379 1362.22 249.966 1364.8 252.665 1366.44C254.308 1367.5 255.951 1369.14 257.125 1371.25C254.543 1372.55 252.196 1371.37 249.848 1371.14C247.501 1370.9 245.154 1370.9 242.807 1370.67C240.343 1370.43 237.878 1369.85 235.531 1368.91" stroke="black" stroke-width="2.34709" stroke-miterlimit="10" stroke-linecap="round" stroke-linejoin="round"/>
<path d="M158.899 1196.28C156.082 1203.79 155.026 1211.65 153.383 1219.4C151.036 1230.55 149.745 1241.81 148.572 1253.08C148.22 1256.72 147.868 1260.59 148.689 1263.99C149.511 1267.51 149.041 1271.27 150.919 1274.55C151.271 1275.26 150.919 1275.84 150.919 1276.55" stroke="black" stroke-width="2.34709" stroke-miterlimit="10" stroke-linecap="round" stroke-linejoin="round"/>
<path d="M202.554 1197.45C203.728 1198.98 204.315 1200.74 204.901 1202.5C209.126 1214.12 211.473 1226.2 212.764 1238.53C213.468 1245.92 213.116 1253.2 211.943 1260.47C211.356 1264.46 209.596 1267.98 208.187 1271.62C207.953 1272.09 207.718 1272.68 207.835 1273.15" stroke="black" stroke-width="2.34709" stroke-miterlimit="10" stroke-linecap="round" stroke-linejoin="round"/>
<path d="M122.284 1213.76C122.284 1213.18 122.284 1212.59 122.284 1212C122.402 1210.83 121.815 1210.24 120.759 1210.01C120.289 1209.89 119.703 1209.77 119.233 1209.77C114.539 1210.13 110.079 1208.72 105.503 1208.37C102.686 1208.13 101.747 1208.84 102.334 1211.77C102.334 1212 102.334 1212.36 102.334 1212.59C102.686 1214.12 102.803 1215.64 105.268 1215.88C108.084 1216.23 110.901 1216.58 113.717 1217.28C115.243 1217.75 116.886 1217.99 118.412 1218.34C120.876 1218.93 121.463 1218.46 121.58 1215.99C121.58 1215.29 121.697 1214.59 122.402 1214C125.922 1214.94 129.678 1215.29 133.433 1216.11C135.311 1216.46 135.78 1217.64 136.132 1218.93C136.484 1220.57 136.836 1222.21 136.954 1223.86C137.306 1229.61 137.423 1235.36 137.775 1241.11C138.127 1246.51 138.245 1251.9 138.127 1257.42C138.01 1261.29 137.892 1265.28 138.01 1269.16C138.01 1271.62 138.244 1274.08 138.362 1276.55" stroke="black" stroke-width="2.34709" stroke-miterlimit="10" stroke-linecap="round" stroke-linejoin="round"/>
<path d="M134.841 1216.23C135.545 1214.59 134.724 1213.06 134.606 1211.53C134.489 1208.48 134.137 1205.43 135.076 1202.26C135.78 1200.27 136.953 1199.56 138.714 1199.33C144.347 1198.86 150.097 1199.21 155.73 1199.09C156.317 1199.09 156.786 1199.56 157.256 1199.56" stroke="black" stroke-width="2.34709" stroke-miterlimit="10" stroke-linecap="round" stroke-linejoin="round"/>
<path d="M155.026 1364.68C154.909 1366.44 156.2 1367.62 157.021 1369.02C161.246 1376.42 164.884 1384.16 168.757 1391.79C169.461 1393.32 170.165 1394.84 170.282 1396.49" stroke="black" stroke-width="2.34709" stroke-miterlimit="10" stroke-linecap="round" stroke-linejoin="round"/>
<path d="M145.403 1296.85C145.168 1304.36 145.872 1311.76 146.342 1319.15C146.459 1320.56 146.576 1321.97 146.694 1323.49" stroke="black" stroke-width="2.34709" stroke-miterlimit="10" stroke-linecap="round" stroke-linejoin="round"/>
<path d="M149.041 1337.93C153.266 1340.39 156.199 1343.79 156.669 1348.96C157.138 1353.77 154.322 1357.29 149.745 1358.35C142.352 1359.99 134.371 1354.36 132.611 1348.02" stroke="black" stroke-width="2.34709" stroke-miterlimit="10" stroke-linecap="round" stroke-linejoin="round"/>
<path d="M187.533 1330.77C185.421 1330.77 183.778 1332.06 182.018 1333C176.385 1335.93 170.752 1338.86 165.588 1342.62C164.062 1343.68 162.419 1344.61 161.128 1345.91" stroke="black" stroke-width="2.34709" stroke-miterlimit="10" stroke-linecap="round" stroke-linejoin="round"/>
<path d="M129.09 1363.04C128.973 1365.15 127.682 1366.68 126.508 1368.32C123.692 1372.54 120.875 1376.77 116.651 1379.82" stroke="black" stroke-width="2.34709" stroke-miterlimit="10" stroke-linecap="round" stroke-linejoin="round"/>
<path d="M109.727 1332.53C113.717 1334.64 117.942 1336.28 122.049 1338.04C122.636 1338.28 123.34 1338.51 123.81 1338.98" stroke="black" stroke-width="2.34709" stroke-miterlimit="10" stroke-linecap="round" stroke-linejoin="round"/>
<path d="M199.034 1387.57C203.728 1388.62 208.657 1388.51 213.468 1389.09C223.795 1390.27 234.24 1390.97 244.685 1391.79C247.149 1392.03 249.262 1391.56 251.257 1389.91C256.303 1385.92 260.293 1381.11 264.4 1376.18C265.691 1374.54 267.334 1373.25 268.39 1371.37C270.033 1368.55 269.564 1366.91 266.513 1365.74C262.523 1364.21 258.415 1363.27 254.542 1361.4C249.496 1359.05 248.088 1360.22 248.909 1354.82" stroke="black" stroke-width="2.34709" stroke-miterlimit="10" stroke-linecap="round" stroke-linejoin="round"/>
<path d="M152.312 1170.14C152.312 1176.04 152.412 1182.24 153.312 1188.44C153.512 1189.54 153.912 1190.14 155.012 1190.54C162.612 1193.04 170.412 1194.84 178.312 1195.54C186.212 1196.24 194.112 1196.64 201.912 1194.44C204.812 1193.64 206.512 1192.54 207.112 1189.04C208.812 1178.84 210.112 1168.64 210.312 1158.24C210.412 1155.34 210.212 1152.44 210.012 1149.54C209.912 1148.24 210.412 1148.04 211.612 1148.54C216.512 1150.34 221.712 1151.04 226.912 1151.64C228.612 1151.84 229.412 1151.14 229.612 1149.54C230.512 1142.74 229.912 1136.04 227.112 1129.64C223.812 1121.84 219.212 1114.84 213.012 1109.14C208.412 1104.84 203.212 1101.64 197.012 1100.24C191.912 1099.04 186.712 1098.64 181.512 1099.34C174.312 1100.24 169.012 1104.04 165.512 1110.44C160.912 1119.04 157.712 1128.24 155.512 1137.74C153.212 1148.24 152.112 1159.04 152.312 1170.14Z" fill="white"/>
<path d="M154.712 1189.44C154.412 1186.94 154.012 1184.44 153.812 1181.84C153.312 1175.44 153.612 1169.04 153.612 1162.74C153.612 1159.04 154.212 1155.34 154.512 1151.64C155.112 1144.94 156.512 1138.44 158.212 1132.04C159.212 1128.34 160.712 1124.74 162.012 1121.14C163.712 1116.64 165.612 1112.34 168.312 1108.24C171.412 1103.64 175.812 1101.44 181.012 1100.54C184.512 1099.94 187.912 1100.24 191.412 1100.54C195.212 1100.84 198.712 1101.64 202.112 1103.24C206.412 1105.24 210.312 1107.84 213.612 1111.24C218.312 1116.14 222.112 1121.64 225.012 1127.74C228.012 1133.94 229.312 1140.44 228.612 1147.34C228.312 1150.84 228.312 1150.94 225.012 1150.44C220.812 1149.74 216.612 1149.24 212.612 1147.84C212.112 1147.64 211.612 1147.44 211.112 1147.24C209.612 1146.44 209.012 1146.84 209.012 1148.74C209.012 1151.84 209.112 1154.94 209.112 1157.94C209.112 1162.84 208.512 1167.74 208.212 1172.64C207.912 1178.14 206.512 1183.54 205.812 1188.94C205.712 1189.84 205.412 1190.84 205.212 1191.74" stroke="black" stroke-width="2" stroke-miterlimit="10" stroke-linecap="round" stroke-linejoin="round"/>
<path d="M180 1163.22C183.9 1166.12 188.5 1165.92 193 1165.72C194.3 1165.62 195.6 1164.92 196.9 1164.42" stroke="black" stroke-width="2" stroke-miterlimit="10" stroke-linecap="round" stroke-linejoin="round"/>
<path d="M182.8 1130.72C185.4 1128.22 188.7 1127.92 192.1 1128.02" stroke="black" stroke-width="2" stroke-miterlimit="10" stroke-linecap="round" stroke-linejoin="round"/>
<path d="M180.8 1139.02C184 1137.92 187 1138.02 189.7 1140.22" stroke="black" stroke-width="2" stroke-miterlimit="10" stroke-linecap="round" stroke-linejoin="round"/>
<path d="M200.5 1129.92C201.5 1129.72 202.4 1130.22 203.2 1130.82C204.8 1131.92 206.4 1132.92 207.8 1134.32C208.1 1134.62 208.5 1134.92 209 1134.82" stroke="black" stroke-width="2" stroke-miterlimit="10" stroke-linecap="round" stroke-linejoin="round"/>
<path d="M197.3 1140.02C200 1139.52 202.4 1139.82 204.2 1142.02" stroke="black" stroke-width="2" stroke-miterlimit="10" stroke-linecap="round" stroke-linejoin="round"/>
<path d="M147.369 1147.21C147.369 1149.81 147.669 1152.31 147.169 1154.91C146.769 1157.11 145.569 1158.41 143.469 1159.21C138.169 1161.21 137.169 1163.11 138.969 1168.61C139.769 1171.31 140.869 1173.91 141.869 1176.61C142.669 1178.71 142.569 1180.51 141.069 1182.31C138.569 1185.31 138.769 1188.31 141.469 1191.21C144.269 1194.21 147.669 1195.91 151.969 1195.11C152.869 1194.91 153.769 1195.01 154.569 1195.41C155.869 1196.11 156.169 1195.31 156.269 1194.31C156.369 1192.91 156.369 1191.51 156.369 1190.11C156.369 1187.61 157.269 1185.81 159.369 1184.41C161.469 1183.01 163.369 1181.31 165.469 1179.71C166.469 1178.91 166.969 1177.81 166.969 1176.51C167.069 1174.61 166.469 1172.91 166.069 1171.11C165.569 1169.31 165.069 1167.41 164.769 1165.61C164.269 1162.71 164.969 1160.21 167.569 1158.61C170.769 1156.71 171.169 1153.91 170.469 1150.71C169.869 1147.71 168.869 1144.71 168.269 1141.61C167.369 1136.71 169.169 1133.91 173.469 1131.61C176.169 1130.21 178.969 1129.01 181.569 1127.51C188.869 1123.51 192.069 1117.21 191.869 1109.01C191.869 1108.51 191.769 1108.01 191.769 1107.51C191.769 1106.91 192.069 1106.71 192.669 1107.11C192.969 1107.41 193.269 1107.61 193.469 1107.91C195.569 1109.91 197.869 1111.71 200.269 1113.31C204.469 1116.01 208.969 1117.51 214.069 1116.41C214.669 1116.31 215.169 1116.21 215.869 1116.51C217.169 1117.01 217.669 1116.61 217.369 1115.31C217.169 1114.51 216.869 1113.81 216.569 1113.11C207.369 1094.11 182.369 1088.01 165.369 1100.61C160.469 1104.21 158.369 1109.21 157.869 1115.11C157.569 1118.31 157.269 1121.51 156.969 1124.71C156.869 1125.61 156.469 1126.41 155.869 1127.11C154.769 1128.61 153.569 1130.01 152.269 1131.21C148.169 1134.81 146.869 1139.51 147.269 1144.81C147.269 1145.71 147.369 1146.41 147.369 1147.21Z" fill="white"/>
<path d="M209.469 1188.51C209.469 1190.11 209.469 1191.71 209.469 1193.31C209.469 1194.31 209.869 1194.71 210.669 1195.01C213.369 1195.91 215.769 1195.31 217.969 1193.81C218.969 1193.11 219.969 1192.71 221.169 1192.71C223.569 1192.61 224.469 1191.41 223.769 1189.11C223.269 1187.31 222.269 1185.81 221.469 1184.11C220.469 1182.01 220.069 1180.01 222.269 1178.31C223.469 1177.41 223.169 1176.11 222.569 1175.01C221.469 1172.91 219.869 1171.21 218.369 1169.41C216.569 1167.41 214.269 1165.91 212.869 1163.61C212.669 1163.31 212.469 1163.21 212.169 1163.31C211.669 1163.51 211.769 1163.91 211.669 1164.31C211.069 1167.11 210.869 1170.01 210.569 1172.91C209.969 1178.11 209.169 1183.31 209.469 1188.51Z" fill="white"/>
<path d="M157.67 1125.41C157.07 1124.61 157.57 1123.71 157.67 1122.91C158.27 1118.71 158.07 1114.41 159.27 1110.21C160.67 1105.21 163.97 1101.81 168.37 1099.41C171.77 1097.51 175.47 1096.21 179.37 1095.31C184.97 1094.01 190.37 1094.31 195.57 1096.11C203.47 1098.81 209.97 1103.41 214.47 1110.61C215.27 1111.91 216.07 1113.31 216.67 1114.81C216.97 1115.41 216.47 1115.71 216.77 1116.31C215.37 1115.91 214.17 1116.11 212.97 1116.31C208.77 1117.11 204.97 1115.81 201.47 1113.61C198.67 1111.91 196.07 1109.91 193.77 1107.41C193.57 1107.21 193.37 1106.81 193.07 1106.71C191.17 1106.01 191.27 1104.21 190.77 1102.71" stroke="black" stroke-width="2" stroke-miterlimit="10" stroke-linecap="round" stroke-linejoin="round"/>
<path d="M156.869 1124.81C156.669 1128.31 153.069 1131.31 151.669 1132.81C150.069 1134.51 148.669 1136.31 148.169 1138.71C147.669 1141.11 147.569 1143.51 147.869 1146.11C148.269 1149.41 148.369 1152.71 147.569 1155.91C147.069 1158.01 145.469 1159.31 143.469 1159.91C142.769 1160.11 141.969 1160.41 141.369 1160.71C139.469 1161.41 138.669 1163.31 138.869 1165.51C139.169 1168.71 140.469 1171.51 141.669 1174.41C142.169 1175.61 142.769 1176.81 142.969 1178.11C143.169 1179.41 143.269 1180.81 142.269 1182.01C141.369 1183.01 140.469 1184.21 140.169 1185.51C139.769 1186.91 139.969 1188.51 141.069 1189.81C143.669 1193.11 146.769 1195.41 151.269 1194.81C152.669 1194.61 153.969 1194.71 155.169 1195.21C155.769 1194.51 155.769 1193.71 155.769 1192.91C155.569 1191.21 155.869 1189.41 156.169 1187.71C156.369 1186.61 156.969 1185.71 157.969 1185.01C159.769 1183.71 161.569 1182.21 163.369 1180.81C166.869 1178.11 167.269 1176.81 166.069 1172.61C165.269 1169.81 164.269 1167.01 164.269 1164.11C164.169 1162.01 164.869 1160.21 166.569 1158.91C166.669 1158.81 166.769 1158.61 166.869 1158.61C170.769 1156.41 170.769 1153.01 169.669 1149.21C168.869 1146.41 168.169 1143.51 167.569 1140.71C167.269 1139.31 168.469 1134.61 170.169 1133.21" stroke="black" stroke-width="2" stroke-miterlimit="10" stroke-linecap="round" stroke-linejoin="round"/>
<path d="M212.369 1163.71C212.869 1165.21 214.069 1166.21 215.269 1167.21C217.869 1169.61 220.269 1172.11 222.069 1175.21C222.669 1176.31 222.669 1177.11 221.769 1178.11C219.869 1180.01 219.769 1181.61 220.869 1184.11C221.669 1185.91 222.669 1187.71 223.369 1189.61C223.869 1190.91 222.869 1192.31 221.369 1192.21C219.769 1192.11 218.569 1192.61 217.369 1193.51C215.169 1195.11 212.569 1195.41 210.069 1194.11" stroke="black" stroke-width="2" stroke-miterlimit="10" stroke-linecap="round" stroke-linejoin="round"/>
<path d="M191.569 1106.21C191.369 1106.81 191.269 1107.41 191.369 1108.01C191.869 1116.11 188.969 1122.51 181.869 1126.71C179.869 1127.91 177.769 1128.61 175.669 1129.61C173.669 1130.61 171.869 1131.91 169.969 1133.11" stroke="black" stroke-width="2" stroke-miterlimit="10" stroke-linecap="round" stroke-linejoin="round"/>
<path d="M198.2 1184.05C200.3 1183.85 203 1183.65 205.7 1183.35C206.6 1183.25 207 1182.55 207.6 1182.05C216.3 1175.55 222.9 1167.25 229 1158.35C230.9 1155.55 231.2 1152.45 230.9 1149.25C230.7 1147.55 230.3 1145.95 230 1144.35C229.8 1143.15 229.3 1142.85 228 1143.15C222.9 1144.45 217.8 1145.95 212.6 1146.75C211.1 1146.95 209.5 1147.25 208 1147.25C201 1147.35 194 1147.25 187 1147.45C180.1 1147.65 173.4 1146.25 166.9 1144.15C164.2 1143.25 161.4 1142.25 158.7 1141.25C158.3 1141.15 157.8 1140.75 157.5 1141.25C157.3 1141.85 158 1141.95 158.3 1142.05C163.1 1143.95 167.9 1145.75 172.9 1146.65C173.9 1146.85 174.4 1147.25 174.5 1148.35C175.6 1156.55 175.3 1164.65 173.8 1172.75C173.5 1174.65 173.3 1174.75 171.5 1173.85C166.3 1171.15 161 1168.65 156.6 1164.75C156.3 1164.45 156 1164.15 155.6 1164.45C155.2 1164.85 155.6 1165.15 155.9 1165.45C156.7 1166.15 157.6 1166.95 158.5 1167.55C161.1 1169.45 163.8 1170.95 166.7 1172.45C173.5 1176.05 180.5 1179.25 187.7 1182.15C190.9 1183.45 194.2 1184.05 198.2 1184.05Z" fill="white"/>
<path d="M157 1141.25C158.6 1141.45 159.9 1142.25 161.3 1142.75C165 1144.05 168.8 1144.95 172.5 1146.15C177.8 1147.85 183.3 1147.75 188.7 1147.75C192.8 1147.75 196.9 1147.65 201.1 1147.75C208.5 1148.05 215.7 1146.95 222.8 1144.85C224.5 1144.35 226.2 1144.05 227.8 1143.45C228.9 1143.15 229.4 1143.45 229.6 1144.45C230.3 1147.75 230.9 1151.05 230.1 1154.35C229.7 1156.45 228.5 1158.15 227.4 1159.75C223.5 1165.05 219.4 1170.25 214.7 1174.95C212 1177.65 209.1 1180.05 206 1182.35C205 1183.15 203.7 1182.75 202.6 1182.95C201.2 1183.15 199.7 1183.35 198.3 1183.45C194 1183.55 189.9 1182.35 185.9 1180.85C182 1179.35 178.4 1177.15 174.7 1175.15C173.5 1174.55 172.2 1174.65 171 1174.05C165.6 1171.15 160.1 1168.45 155.5 1164.35" stroke="black" stroke-width="2" stroke-miterlimit="10" stroke-linecap="round" stroke-linejoin="round"/>
<path d="M175.2 1147.45C174.6 1149.35 175.3 1151.15 175.4 1152.95C175.7 1156.65 175.6 1160.25 175.4 1163.95C175.2 1167.65 174.4 1171.15 174 1174.85" stroke="black" stroke-width="2" stroke-miterlimit="10" stroke-linecap="round" stroke-linejoin="round"/>
<path d="M180.1 1170.35C180.9 1170.15 181.6 1170.75 182.3 1171.05C185.7 1172.55 189.1 1174.25 192.3 1176.05C192.8 1176.35 193.3 1176.85 193.8 1177.25" stroke="black" stroke-width="2" stroke-miterlimit="10" stroke-linecap="round" stroke-linejoin="round"/>
<path d="M183.8 1156.85C188.1 1156.95 192.5 1157.05 196.8 1157.15" stroke="black" stroke-width="2" stroke-miterlimit="10" stroke-linecap="round" stroke-linejoin="round"/>
<path d="M214.799 1164.35C217.299 1164.55 219.6 1163.85 221.5 1162.15" stroke="black" stroke-width="2" stroke-miterlimit="10" stroke-linecap="round" stroke-linejoin="round"/>
<path d="M75.6344 1100.52C74.5344 1099.22 73.6344 1098.12 72.6344 1097.12C71.9344 1096.42 71.1344 1095.72 70.0344 1096.12C68.9344 1096.62 69.0344 1097.72 68.9344 1098.72C68.8344 1100.02 69.5343 1101.12 69.7343 1102.72C68.4343 1101.82 67.5344 1101.02 66.5344 1100.42C65.8344 1099.92 64.9344 1099.42 64.1344 1100.12C63.2344 1100.82 63.6344 1101.82 64.0344 1102.72C64.5344 1103.82 65.0343 1104.82 65.7343 1106.32C64.6343 1105.82 63.8344 1105.42 63.0344 1105.22C61.8344 1104.82 60.6344 1104.62 59.6344 1105.72C58.6344 1106.82 58.7343 1108.02 59.3343 1109.22C60.3343 1111.52 62.1343 1113.32 63.7343 1115.12C68.5343 1120.32 71.9344 1126.42 75.5344 1132.42C79.0344 1138.32 82.8344 1144.02 86.5344 1149.82C89.4344 1154.42 91.8343 1159.32 94.7343 1163.92C100.734 1173.62 107.734 1182.42 115.434 1190.72C121.234 1197.02 127.134 1203.12 134.134 1208.12C139.534 1212.02 145.034 1215.52 151.834 1216.52C152.034 1216.52 152.234 1216.52 152.334 1216.62C153.734 1218.62 154.634 1217.02 155.434 1216.12C158.834 1212.32 160.634 1207.82 161.734 1202.82C162.634 1198.22 162.934 1193.72 162.334 1189.02C162.134 1187.72 161.834 1187.22 160.434 1187.82C157.934 1188.82 155.434 1188.32 153.034 1187.62C146.234 1185.52 140.534 1181.42 135.534 1176.52C126.934 1168.02 120.134 1158.22 113.534 1148.12C109.134 1141.42 105.034 1134.52 100.234 1128.02C99.8343 1127.42 99.6344 1126.82 99.5344 1126.22C98.0344 1118.92 97.0344 1111.62 96.0344 1104.22C95.9344 1103.32 95.6344 1102.52 95.4344 1101.72C95.0344 1100.72 94.4343 1099.82 93.2343 1099.82C91.9343 1099.82 91.0344 1100.52 90.5344 1101.72C89.6344 1104.02 89.5343 1106.42 89.3343 1108.82C89.3343 1109.62 89.7344 1110.82 88.9344 1111.02C88.0344 1111.22 87.8344 1110.02 87.5344 1109.32C86.3344 1107.22 85.2344 1105.02 84.1344 1102.92C83.1344 1100.92 81.8344 1099.12 80.1344 1097.72C79.3344 1097.02 78.4343 1096.32 77.3343 1096.72C76.1343 1097.12 76.3343 1098.32 76.2343 1099.22C75.8343 1099.72 75.7344 1099.92 75.6344 1100.52Z" fill="white"/>
<path d="M290.934 1140.82C290.534 1139.82 291.034 1138.92 290.934 1138.02C290.834 1137.12 290.834 1136.02 289.734 1135.72C288.734 1135.52 288.134 1136.22 287.634 1136.92C287.034 1137.82 286.434 1138.72 285.834 1139.72C285.834 1139.82 285.634 1139.82 285.234 1139.92C285.234 1138.32 285.234 1136.82 285.234 1135.32C285.234 1134.32 285.334 1133.02 283.934 1132.82C282.634 1132.62 281.934 1133.62 281.434 1134.52C279.834 1137.52 278.834 1140.82 277.834 1144.12C277.534 1145.02 277.234 1145.92 276.834 1147.12C276.034 1145.92 276.134 1144.82 276.034 1143.72C275.834 1142.52 275.734 1141.32 275.334 1140.12C274.834 1138.52 273.734 1138.22 272.534 1139.42C271.134 1140.82 270.634 1142.62 270.534 1144.52C270.434 1149.12 270.134 1153.62 269.934 1158.22C269.834 1159.82 269.434 1161.12 268.434 1162.32C256.434 1177.52 241.434 1188.02 222.134 1191.62C219.134 1192.22 216.234 1193.02 213.234 1193.22C211.434 1193.32 201.3 1194.2 201 1196C200.2 1201.6 209.734 1207.12 211.634 1212.42C211.934 1213.32 212.434 1213.62 213.334 1213.52C234.434 1213.12 253.434 1206.92 269.634 1193.02C277.234 1186.52 283.334 1178.82 287.734 1169.82C290.034 1165.12 292.734 1160.72 295.234 1156.12C296.934 1153.12 298.334 1150.12 298.934 1146.62C299.034 1145.82 299.034 1145.02 298.834 1144.12C298.434 1142.42 297.834 1142.02 296.334 1142.82C295.634 1143.12 295.334 1143.22 295.434 1142.32C295.534 1141.12 296.034 1139.62 294.534 1138.92C293.034 1138.32 292.034 1139.42 291.134 1140.52C291.134 1140.72 291.134 1140.72 290.934 1140.82Z" fill="white"/>
<path d="M69.9345 1110.92C68.2345 1107.82 65.0345 1107.12 62.2345 1105.82C61.3345 1105.42 60.7345 1105.62 60.1345 1106.22C59.4345 1106.82 59.4345 1107.82 59.6345 1108.52C60.0345 1109.82 60.7345 1111.02 61.7345 1112.02C68.0345 1118.12 72.2345 1125.82 76.7345 1133.22C79.4345 1137.72 82.0345 1142.22 85.1345 1146.42C87.0345 1148.92 88.2345 1151.82 89.7345 1154.52C94.5345 1162.92 99.6345 1171.12 105.734 1178.62C109.134 1182.82 112.634 1186.82 116.234 1190.82C119.134 1194.02 122.234 1197.22 125.334 1200.12C130.934 1205.42 137.034 1210.22 144.134 1213.52C146.734 1214.72 149.235 1215.62 152.035 1215.92C152.835 1216.02 153.734 1216.02 153.334 1217.22" stroke="black" stroke-width="2" stroke-miterlimit="10" stroke-linecap="round" stroke-linejoin="round"/>
<path d="M295.134 1144.72C295.734 1144.72 296.134 1144.32 296.634 1143.92C297.634 1143.12 298.234 1143.32 298.434 1144.72C298.634 1146.02 298.334 1147.42 297.934 1148.72C296.734 1152.62 294.534 1156.02 292.734 1159.62C290.034 1164.92 287.234 1170.12 284.234 1175.22C279.134 1183.92 272.134 1191.02 264.034 1196.82C257.034 1201.82 249.434 1205.72 241.234 1208.32C234.434 1210.52 227.534 1212.02 220.334 1212.42C217.934 1212.52 215.634 1212.62 213.234 1212.82C212.534 1212.92 212.334 1213.02 212.434 1213.72" stroke="black" stroke-width="2" stroke-miterlimit="10" stroke-linecap="round" stroke-linejoin="round"/>
<path d="M88.9342 1113.12C90.1342 1111.22 89.8342 1109.12 89.9342 1107.12C90.0342 1105.32 90.2342 1103.62 90.9342 1102.02C91.2342 1101.32 91.8341 1100.42 92.8341 1100.52C93.7341 1100.62 94.1342 1101.42 94.5342 1102.32C95.2342 1103.92 95.2342 1105.72 95.4342 1107.42C96.1342 1113.32 97.3341 1119.12 98.1341 1124.92C98.4341 1127.02 99.3342 1128.62 100.434 1130.12C104.434 1135.52 107.934 1141.32 111.634 1147.02C116.334 1154.32 121.134 1161.52 126.734 1168.32C130.534 1172.92 134.534 1177.22 139.134 1181.02C143.334 1184.52 148.034 1187.22 153.434 1188.62C155.834 1189.32 158.134 1189.12 160.534 1188.92C160.934 1188.92 160.834 1188.52 160.834 1188.22" stroke="black" stroke-width="2" stroke-miterlimit="10" stroke-linecap="round" stroke-linejoin="round"/>
<path d="M276.134 1149.32C275.434 1148.32 275.234 1147.12 275.334 1145.92C275.434 1144.22 275.034 1142.52 274.734 1140.82C274.634 1140.32 274.434 1139.82 273.834 1139.62C272.234 1140.52 271.734 1141.92 271.434 1143.62C271.034 1145.62 271.134 1147.72 271.134 1149.72C271.134 1151.82 271.234 1154.02 270.834 1156.12C270.734 1156.62 270.634 1157.32 270.834 1157.72C271.434 1159.32 270.734 1160.72 269.834 1161.82C262.234 1171.52 253.534 1180.02 242.334 1185.62C235.234 1189.12 227.734 1191.32 220.034 1192.92C217.134 1193.52 208 1195 204 1195" stroke="black" stroke-width="2" stroke-miterlimit="10" stroke-linecap="round" stroke-linejoin="round"/>
<path d="M275.634 1152.32C275.834 1150.92 276.034 1149.62 276.934 1148.42C278.034 1146.72 278.334 1144.52 278.934 1142.52C279.634 1140.22 280.434 1137.82 281.534 1135.72C282.434 1134.12 282.434 1134.12 284.034 1133.62C284.434 1137.82 284.834 1141.82 283.134 1145.72" stroke="black" stroke-width="2" stroke-miterlimit="10" stroke-linecap="round" stroke-linejoin="round"/>
<path d="M78.7342 1107.82C78.5342 1107.32 78.4343 1106.72 78.0343 1106.32C76.1343 1104.12 76.5343 1101.42 76.6343 1098.92C76.6343 1097.62 77.7342 1097.12 78.7342 1097.92C80.9342 1099.62 82.5342 1101.82 83.7342 1104.32C84.8342 1106.62 86.1342 1108.92 87.3342 1111.22C87.6342 1111.72 87.9342 1112.22 88.3342 1112.52C89.1342 1113.22 89.3343 1114.02 88.9343 1115.02" stroke="black" stroke-width="2" stroke-miterlimit="10" stroke-linecap="round" stroke-linejoin="round"/>
<path d="M284.734 1141.92C285.934 1141.52 286.234 1140.32 286.834 1139.42C287.334 1138.72 287.734 1138.02 288.134 1137.22C288.434 1136.62 288.934 1136.42 289.434 1136.62C289.834 1136.82 290.234 1137.32 290.134 1137.92C289.634 1140.52 290.434 1143.42 288.734 1145.82C288.234 1146.52 288.034 1147.42 288.034 1148.32" stroke="black" stroke-width="2" stroke-miterlimit="10" stroke-linecap="round" stroke-linejoin="round"/>
<path d="M76.0342 1102.32C74.7342 1101.72 74.4342 1100.32 73.5342 1099.32C73.0342 1098.82 72.7341 1098.22 72.2341 1097.72C71.6341 1097.12 70.9342 1096.52 70.1342 1096.92C69.3342 1097.32 69.6342 1098.32 69.6342 1099.02C69.6342 1099.92 69.8341 1100.72 70.2341 1101.52C70.7341 1102.42 70.9342 1103.32 70.5342 1104.32" stroke="black" stroke-width="2" stroke-miterlimit="10" stroke-linecap="round" stroke-linejoin="round"/>
<path d="M66.6342 1107.42C66.7342 1106.52 66.4341 1105.72 65.8341 1104.92C65.2341 1104.12 64.6342 1103.22 64.5342 1102.12C64.5342 1101.62 64.2341 1101.12 64.8341 1100.82C65.3341 1100.52 65.6342 1100.92 66.0342 1101.02C66.9342 1101.22 67.3342 1102.02 68.0342 1102.52C70.3342 1104.12 72.4342 1105.92 73.5342 1108.62" stroke="black" stroke-width="2" stroke-miterlimit="10" stroke-linecap="round" stroke-linejoin="round"/>
<path d="M294.134 1139.12C295.034 1140.32 294.534 1141.72 294.734 1143.02C295.134 1145.92 292.934 1147.82 292.434 1150.32" stroke="black" stroke-width="2" stroke-miterlimit="10" stroke-linecap="round" stroke-linejoin="round"/>
<path d="M293.935 1139.72C292.935 1139.82 292.334 1140.42 291.834 1141.32C291.434 1141.92 290.934 1142.32 290.334 1142.62" stroke="black" stroke-width="2" stroke-miterlimit="10" stroke-linecap="round" stroke-linejoin="round"/>
</svg>
