<svg width="391" height="111" viewBox="0 0 391 111" fill="none" xmlns="http://www.w3.org/2000/svg">
<path d="M4.04688 45.8281C3.89062 45.8281 3.65625 45.7969 3.34375 45.7344C3.0625 45.6406 2.76562 45.5469 2.45312 45.4531C2.14062 45.3281 1.84375 45.2188 1.5625 45.125C1.28125 45 1.09375 44.9062 1 44.8438C0.96875 44.7812 0.953125 44.7188 0.953125 44.6562C0.921875 44.5938 0.90625 44.5156 0.90625 44.4219C0.90625 43.9844 1.07812 43.6094 1.42188 43.2969C1.76562 42.9844 2.15625 42.7344 2.59375 42.5469C3.0625 42.3281 3.51562 42.1719 3.95312 42.0781C4.39062 41.9531 4.73438 41.875 4.98438 41.8438H5.54688H6.01562C6.76562 41.9062 7.71875 42 8.875 42.125C10.0312 42.25 11.25 42.3906 12.5312 42.5469C13.8438 42.6719 15.1562 42.8125 16.4688 42.9688C17.8125 43.0938 19.0156 43.2344 20.0781 43.3906C21.1719 43.5156 22.0781 43.625 22.7969 43.7188C23.5469 43.7812 23.9844 43.8125 24.1094 43.8125C24.3594 43.8438 24.6719 43.9062 25.0469 44C25.4531 44.0625 25.8594 44.1875 26.2656 44.375C26.6719 44.5312 27.0469 44.7344 27.3906 44.9844C27.7344 45.2031 27.9844 45.4844 28.1406 45.8281C27.8906 46.3281 27.6719 46.7188 27.4844 47C27.2969 47.25 27.0938 47.4531 26.875 47.6094C26.6562 47.7344 26.4219 47.7969 26.1719 47.7969C25.9531 47.7969 25.6719 47.7969 25.3281 47.7969C24.0156 47.7969 22.6875 47.75 21.3438 47.6562C20.0312 47.5625 18.7188 47.4688 17.4062 47.375C16.0938 47.2812 14.7656 47.1875 13.4219 47.0938C12.1094 47 10.7812 46.9531 9.4375 46.9531C9.4375 47.5156 9.35938 48.3594 9.20312 49.4844C9.07812 50.6094 8.96875 51.7969 8.875 53.0469C8.8125 54.2969 8.84375 55.5469 8.96875 56.7969C9.125 58.0156 9.48438 59.0469 10.0469 59.8906C11.1406 59.2344 12.2812 58.8906 13.4688 58.8594C14.6562 58.8281 15.8594 58.8125 17.0781 58.8125C17.6094 58.8125 18.2812 58.8125 19.0938 58.8125C19.9062 58.8125 20.6875 58.9062 21.4375 59.0938C22.2188 59.2812 22.875 59.5938 23.4062 60.0312C23.9375 60.4688 24.2031 61.125 24.2031 62C24.2031 62.625 24.0781 63.0938 23.8281 63.4062C23.5781 63.7188 23 63.875 22.0938 63.875C22 63.875 21.7969 63.8281 21.4844 63.7344C21.2031 63.6406 20.8906 63.5312 20.5469 63.4062C20.2344 63.2812 19.9375 63.1719 19.6562 63.0781C19.375 62.9844 19.1875 62.9375 19.0938 62.9375C19.0625 62.9375 18.9375 62.9375 18.7188 62.9375C18.5312 62.9062 18.2969 62.8906 18.0156 62.8906C17.7344 62.8906 17.4531 62.8906 17.1719 62.8906C16.9219 62.8594 16.7188 62.8438 16.5625 62.8438C15.8438 62.8438 15.1406 62.8906 14.4531 62.9844C13.7969 63.0781 13.2188 63.2656 12.7188 63.5469C12.2188 63.8281 11.8125 64.2344 11.5 64.7656C11.2188 65.2969 11.0781 65.9844 11.0781 66.8281C11.0781 67.1094 11.1094 67.5938 11.1719 68.2812C11.2344 68.9688 11.3125 69.7344 11.4062 70.5781C11.5312 71.3906 11.6875 72.2344 11.875 73.1094C12.0625 73.9844 12.3125 74.7969 12.625 75.5469C12.9375 76.2656 13.2812 76.875 13.6562 77.375C14.0625 77.8438 14.5469 78.0781 15.1094 78.0781C15.1719 78.0781 15.3281 78.0625 15.5781 78.0312C15.8281 78 15.9844 77.9844 16.0469 77.9844C17.1094 77.2656 18.1719 76.4844 19.2344 75.6406C20.3281 74.7969 21.4531 74.0156 22.6094 73.2969C23.7656 72.5469 24.9688 71.9219 26.2188 71.4219C27.4688 70.8906 28.7656 70.625 30.1094 70.625V72.9219C30.1094 73.0469 29.7969 73.3906 29.1719 73.9531C28.5781 74.5156 27.7812 75.1719 26.7812 75.9219C25.8125 76.6719 24.7188 77.4688 23.5 78.3125C22.2812 79.1562 21.0625 79.9375 19.8438 80.6562C18.625 81.3438 17.4531 81.9219 16.3281 82.3906C15.2344 82.8594 14.3125 83.0938 13.5625 83.0938C12.5 83.0938 11.5469 82.625 10.7031 81.6875C9.89062 80.7188 9.15625 79.4531 8.5 77.8906C7.84375 76.2969 7.29688 74.4688 6.85938 72.4062C6.42188 70.3438 6.03125 68.2188 5.6875 66.0312C5.375 63.8438 5.10938 61.6719 4.89062 59.5156C4.70312 57.3281 4.54688 55.3125 4.42188 53.4688C4.29688 51.625 4.20312 50.0312 4.14062 48.6875C4.10938 47.3125 4.07812 46.3594 4.04688 45.8281ZM32.0312 63.3125C32.0312 62.5312 32.1562 61.9219 32.4062 61.4844C32.6875 61.0469 33.2656 60.8281 34.1406 60.8281C34.2344 60.8281 34.4062 60.8438 34.6562 60.875C34.9375 60.875 35.1094 60.875 35.1719 60.875C35.3906 61.8438 35.6094 62.9062 35.8281 64.0625C36.0781 65.1875 36.3594 66.3281 36.6719 67.4844C36.9844 68.6406 37.3281 69.7812 37.7031 70.9062C38.1094 72.0312 38.5938 73.0469 39.1562 73.9531C39.7188 73.3594 40.125 72.6562 40.375 71.8438C40.625 71.0312 40.8125 70.2188 40.9375 69.4062C41.0625 68.5625 41.1719 67.7656 41.2656 67.0156C41.3906 66.2344 41.625 65.5781 41.9688 65.0469C42.3125 64.4844 42.8125 64.0781 43.4688 63.8281C44.1562 63.5781 45.0938 63.5781 46.2812 63.8281C47.5938 63.8281 48.6406 64.0781 49.4219 64.5781C50.2031 65.0469 50.875 65.6562 51.4375 66.4062C52.0312 67.125 52.5938 67.9062 53.125 68.75C53.6875 69.5625 54.3906 70.2969 55.2344 70.9531C55.4219 70.5469 55.6562 70.0469 55.9375 69.4531C56.2188 68.8281 56.5625 68.1875 56.9688 67.5312C57.4062 66.8438 57.8594 66.1719 58.3281 65.5156C58.8281 64.8281 59.3438 64.2188 59.875 63.6875C60.4062 63.125 60.9531 62.6719 61.5156 62.3281C62.0781 61.9531 62.625 61.7656 63.1562 61.7656C64.4375 61.7656 65.5469 62.1719 66.4844 62.9844C67.4219 63.7656 68.2188 64.7656 68.875 65.9844C69.5625 67.1719 70.125 68.5156 70.5625 70.0156C71 71.4844 71.3438 72.9062 71.5938 74.2812C71.8438 75.6562 72.0156 76.9219 72.1094 78.0781C72.2344 79.2031 72.2969 80.0156 72.2969 80.5156C72.2969 80.9219 72.2031 81.2344 72.0156 81.4531C71.8281 81.6719 71.5938 81.8438 71.3125 81.9688C71.0312 82.0625 70.7188 82.125 70.375 82.1562C70.0625 82.1875 69.7656 82.2031 69.4844 82.2031C69.4219 82.2031 69.3281 82.2031 69.2031 82.2031C69.0781 82.1719 68.9375 82.1406 68.7812 82.1094C68.6562 82.0781 68.4844 82.0312 68.2656 81.9688L65.2188 67.9531C65.2188 67.8594 65.0938 67.6875 64.8438 67.4375C64.5938 67.1562 64.4062 66.9844 64.2812 66.9219C64.1875 66.9219 64.1094 66.9062 64.0469 66.875C63.9844 66.875 63.9375 66.875 63.9062 66.875C63.875 66.8438 63.8438 66.8281 63.8125 66.8281C63.1562 66.8281 62.5312 67.0938 61.9375 67.625C61.375 68.1562 60.8438 68.8281 60.3438 69.6406C59.8438 70.4531 59.375 71.3594 58.9375 72.3594C58.5 73.3594 58.1094 74.3594 57.7656 75.3594C57.4219 76.3281 57.1094 77.2344 56.8281 78.0781C56.5781 78.8906 56.375 79.5156 56.2188 79.9531C56.0938 80.0156 55.8438 80.0781 55.4688 80.1406C55.0938 80.1719 54.8438 80.1875 54.7188 80.1875C53.8438 80.1875 53.1719 79.8906 52.7031 79.2969C52.2344 78.6719 51.8438 77.9062 51.5312 77C51.25 76.0938 51 75.1094 50.7812 74.0469C50.5938 72.9531 50.3438 71.9531 50.0312 71.0469C49.75 70.1406 49.3438 69.3906 48.8125 68.7969C48.3125 68.1719 47.5938 67.8594 46.6562 67.8594C46.3125 67.8594 45.9844 68.2031 45.6719 68.8906C45.3594 69.5781 45.0781 70.4531 44.8281 71.5156C44.5781 72.5469 44.3438 73.6719 44.125 74.8906C43.9062 76.0781 43.7188 77.2031 43.5625 78.2656C43.4375 79.2969 43.3438 80.1719 43.2812 80.8906C43.2188 81.6094 43.1875 81.9688 43.1875 81.9688C43.125 82.0625 43 82.1719 42.8125 82.2969C42.625 82.3906 42.4219 82.5 42.2031 82.625C42.0156 82.75 41.8125 82.8438 41.5938 82.9062C41.4062 82.9688 41.2656 83 41.1719 83C40.2969 83 39.4531 82.6094 38.6406 81.8281C37.8281 81.0156 37.0781 79.9844 36.3906 78.7344C35.7344 77.4531 35.125 76.0469 34.5625 74.5156C34.0312 72.9844 33.5781 71.4844 33.2031 70.0156C32.8281 68.5469 32.5312 67.2188 32.3125 66.0312C32.125 64.8438 32.0312 63.9375 32.0312 63.3125ZM74.2188 73.4844C74.2188 71.5469 74.6719 69.75 75.5781 68.0938C76.4844 66.4062 77.6719 64.9688 79.1406 63.7812C80.6406 62.5625 82.3125 61.6094 84.1562 60.9219C86.0312 60.2344 87.9219 59.8906 89.8281 59.8906C90.8906 59.8906 91.8281 60.2344 92.6406 60.9219C93.4844 61.6094 94.1875 62.4531 94.75 63.4531C95.3125 64.4219 95.7344 65.4531 96.0156 66.5469C96.3281 67.6406 96.4844 68.5938 96.4844 69.4062C96.4844 71.1562 96.0625 72.8594 95.2188 74.5156C94.375 76.1406 93.2812 77.5938 91.9375 78.875C90.5938 80.125 89.0781 81.1406 87.3906 81.9219C85.7031 82.7031 84.0156 83.0938 82.3281 83.0938C80.8281 83.0938 79.5625 82.8438 78.5312 82.3438C77.5 81.8125 76.6719 81.125 76.0469 80.2812C75.4219 79.4062 74.9531 78.3906 74.6406 77.2344C74.3594 76.0469 74.2188 74.7969 74.2188 73.4844ZM78.2031 73.9531C78.2031 74.7656 78.2656 75.4844 78.3906 76.1094C78.5469 76.7031 78.7969 77.2188 79.1406 77.6562C79.5156 78.0938 80 78.4375 80.5938 78.6875C81.1875 78.9062 81.9219 79.0156 82.7969 79.0156C83.9531 79.0156 85.1094 78.7031 86.2656 78.0781C87.4219 77.4219 88.4531 76.6094 89.3594 75.6406C90.2969 74.6406 91.0469 73.5469 91.6094 72.3594C92.1719 71.1719 92.4531 70.0156 92.4531 68.8906C92.4531 68.3906 92.4062 67.8438 92.3125 67.25C92.2188 66.6562 92.0625 66.1094 91.8438 65.6094C91.625 65.1094 91.3125 64.6875 90.9062 64.3438C90.5 64 89.9844 63.8281 89.3594 63.8281C88.7969 63.8281 88.125 64.0156 87.3438 64.3906C86.5938 64.7656 85.7969 65.25 84.9531 65.8438C84.1406 66.4375 83.3281 67.1094 82.5156 67.8594C81.7344 68.6094 81.0156 69.3594 80.3594 70.1094C79.7031 70.8594 79.1719 71.5781 78.7656 72.2656C78.3906 72.9531 78.2031 73.5156 78.2031 73.9531ZM97.2812 59.375C97.2812 59.2812 97.2969 59.2031 97.3281 59.1406C97.3281 59.0781 97.3438 59 97.375 58.9062C97.5 58.75 97.6875 58.5469 97.9375 58.2969C98.1875 58.0469 98.3438 57.9219 98.4062 57.9219H107.828C107.828 57.5781 107.781 57.0312 107.688 56.2812C107.594 55.5312 107.5 54.7031 107.406 53.7969C107.344 52.8906 107.328 51.9531 107.359 50.9844C107.391 49.9844 107.516 49.0938 107.734 48.3125C107.984 47.5 108.359 46.8438 108.859 46.3438C109.391 45.8125 110.125 45.5469 111.062 45.5469C111.062 48.7031 111.281 51.2344 111.719 53.1406C112.156 55.0469 112.734 56.5156 113.453 57.5469C114.203 58.5781 115.047 59.25 115.984 59.5625C116.922 59.875 117.875 60.0156 118.844 59.9844C119.844 59.9219 120.812 59.7656 121.75 59.5156C122.688 59.2656 123.516 59.0938 124.234 59C124.984 58.9062 125.578 58.9844 126.016 59.2344C126.453 59.4531 126.672 60 126.672 60.875C126.672 61.5312 126.516 62 126.203 62.2812C125.922 62.5625 125.359 62.7812 124.516 62.9375C124.266 62.9688 123.844 63.0312 123.25 63.125C122.688 63.1875 122.047 63.25 121.328 63.3125C120.609 63.375 119.844 63.4531 119.031 63.5469C118.219 63.6094 117.453 63.6719 116.734 63.7344C116.016 63.7969 115.359 63.8438 114.766 63.875C114.172 63.875 113.734 63.875 113.453 63.875C113.453 64.0312 113.438 64.2969 113.406 64.6719C113.375 65.0469 113.359 65.2969 113.359 65.4219C113.359 66.7969 113.578 68.1406 114.016 69.4531C114.453 70.7344 114.922 72.0156 115.422 73.2969C115.953 74.5781 116.438 75.8594 116.875 77.1406C117.312 78.4219 117.531 79.75 117.531 81.125C117.531 81.375 117.5 81.6406 117.438 81.9219C117.406 82.1719 117.312 82.4062 117.156 82.625C117.031 82.8125 116.828 82.9531 116.547 83.0469C116.297 83.1719 115.938 83.1562 115.469 83C114.281 82.6875 113.391 82.0156 112.797 80.9844C112.234 79.9531 111.812 78.7344 111.531 77.3281C111.25 75.8906 111.062 74.375 110.969 72.7812C110.875 71.1875 110.719 69.7031 110.5 68.3281C110.312 66.9219 110 65.7344 109.562 64.7656C109.125 63.7656 108.422 63.1562 107.453 62.9375L98.4062 60.875C98.2812 60.875 98.0938 60.75 97.8438 60.5C97.5938 60.2188 97.4375 60.0156 97.375 59.8906C97.3438 59.8281 97.3281 59.75 97.3281 59.6562C97.2969 59.5938 97.2812 59.5 97.2812 59.375ZM130.422 65.4219C130.422 65.2344 130.422 64.9375 130.422 64.5312C130.453 64.0938 130.469 63.6406 130.469 63.1719C130.5 62.7031 130.516 62.25 130.516 61.8125C130.547 61.375 130.562 61.0625 130.562 60.875C130.906 60.375 131.344 59.9688 131.875 59.6562C132.438 59.3438 133 59.0938 133.562 58.9062C133.656 60.5938 133.922 62.3906 134.359 64.2969C134.797 66.2031 135.266 68.125 135.766 70.0625C136.266 71.9688 136.703 73.8594 137.078 75.7344C137.484 77.6094 137.688 79.3594 137.688 80.9844C137.688 82.3906 136.969 83.0938 135.531 83.0938C134.656 83.0938 133.922 82.7344 133.328 82.0156C132.734 81.2969 132.25 80.3906 131.875 79.2969C131.531 78.1719 131.25 76.9375 131.031 75.5938C130.812 74.2188 130.656 72.875 130.562 71.5625C130.5 70.25 130.453 69.0469 130.422 67.9531C130.422 66.8594 130.422 66.0156 130.422 65.4219ZM131.078 47.8438C131.672 48.0938 132.172 48.5 132.578 49.0625C132.984 49.625 133.156 50.1406 133.094 50.6094C133.062 51.0469 132.719 51.3594 132.062 51.5469C131.406 51.7031 130.312 51.5156 128.781 50.9844C128.781 50.1406 128.938 49.4062 129.25 48.7812C129.594 48.1562 130.203 47.8438 131.078 47.8438ZM139.516 73.4844C139.516 71.5469 139.969 69.75 140.875 68.0938C141.781 66.4062 142.969 64.9688 144.438 63.7812C145.938 62.5625 147.609 61.6094 149.453 60.9219C151.328 60.2344 153.219 59.8906 155.125 59.8906C156.188 59.8906 157.125 60.2344 157.938 60.9219C158.781 61.6094 159.484 62.4531 160.047 63.4531C160.609 64.4219 161.031 65.4531 161.312 66.5469C161.625 67.6406 161.781 68.5938 161.781 69.4062C161.781 71.1562 161.359 72.8594 160.516 74.5156C159.672 76.1406 158.578 77.5938 157.234 78.875C155.891 80.125 154.375 81.1406 152.688 81.9219C151 82.7031 149.312 83.0938 147.625 83.0938C146.125 83.0938 144.859 82.8438 143.828 82.3438C142.797 81.8125 141.969 81.125 141.344 80.2812C140.719 79.4062 140.25 78.3906 139.938 77.2344C139.656 76.0469 139.516 74.7969 139.516 73.4844ZM143.5 73.9531C143.5 74.7656 143.562 75.4844 143.688 76.1094C143.844 76.7031 144.094 77.2188 144.438 77.6562C144.812 78.0938 145.297 78.4375 145.891 78.6875C146.484 78.9062 147.219 79.0156 148.094 79.0156C149.25 79.0156 150.406 78.7031 151.562 78.0781C152.719 77.4219 153.75 76.6094 154.656 75.6406C155.594 74.6406 156.344 73.5469 156.906 72.3594C157.469 71.1719 157.75 70.0156 157.75 68.8906C157.75 68.3906 157.703 67.8438 157.609 67.25C157.516 66.6562 157.359 66.1094 157.141 65.6094C156.922 65.1094 156.609 64.6875 156.203 64.3438C155.797 64 155.281 63.8281 154.656 63.8281C154.094 63.8281 153.422 64.0156 152.641 64.3906C151.891 64.7656 151.094 65.25 150.25 65.8438C149.438 66.4375 148.625 67.1094 147.812 67.8594C147.031 68.6094 146.312 69.3594 145.656 70.1094C145 70.8594 144.469 71.5781 144.062 72.2656C143.688 72.9531 143.5 73.5156 143.5 73.9531ZM163.609 67.2031C163.609 66.3906 163.812 65.8125 164.219 65.4688C164.625 65.0938 165.281 64.9062 166.188 64.9062H166.656C166.75 65.4062 166.859 65.9844 166.984 66.6406C167.109 67.2969 167.297 67.9688 167.547 68.6562C167.797 69.3438 168.094 69.9844 168.438 70.5781C168.781 71.1406 169.203 71.5938 169.703 71.9375C169.734 70.8438 170 69.7969 170.5 68.7969C171.031 67.7656 171.672 66.8594 172.422 66.0781C173.203 65.2656 174.047 64.5938 174.953 64.0625C175.891 63.5 176.812 63.125 177.719 62.9375H178.75C180.25 62.9375 181.531 63.2812 182.594 63.9688C183.656 64.625 184.531 65.5 185.219 66.5938C185.938 67.6562 186.484 68.875 186.859 70.25C187.234 71.625 187.516 73.0312 187.703 74.4688C187.922 75.875 188.047 77.25 188.078 78.5938C188.141 79.9062 188.172 81.0312 188.172 81.9688H184.75C184.562 80.0938 184.328 78.2969 184.047 76.5781C183.953 75.8906 183.828 75.1719 183.672 74.4219C183.516 73.6406 183.344 72.9219 183.156 72.2656C182.969 71.5781 182.766 70.9531 182.547 70.3906C182.328 69.7969 182.078 69.2969 181.797 68.8906C181.672 68.7656 181.5 68.5938 181.281 68.375C181.094 68.1562 180.891 67.9375 180.672 67.7188C180.453 67.5 180.25 67.3125 180.062 67.1562C179.875 67 179.766 66.9219 179.734 66.9219C178.797 66.6719 177.984 66.8594 177.297 67.4844C176.609 68.0781 176 68.8906 175.469 69.9219C174.938 70.9531 174.5 72.125 174.156 73.4375C173.844 74.75 173.578 76.0156 173.359 77.2344C173.141 78.4219 172.984 79.4688 172.891 80.375C172.797 81.25 172.734 81.7812 172.703 81.9688C171.922 82.5312 171.188 82.7031 170.5 82.4844C169.812 82.2344 169.156 81.7344 168.531 80.9844C167.938 80.2344 167.391 79.2969 166.891 78.1719C166.422 77.0469 165.984 75.8594 165.578 74.6094C165.172 73.3281 164.797 72.0469 164.453 70.7656C164.141 69.4844 163.859 68.2969 163.609 67.2031ZM210.906 76.9531C209.719 77.7656 208.688 78.5 207.812 79.1562C206.969 79.7812 206.141 80.3125 205.328 80.75C204.516 81.1875 203.641 81.5156 202.703 81.7344C201.797 81.9531 200.672 82.0625 199.328 82.0625C196.422 82.0625 194.266 81.2969 192.859 79.7656C191.453 78.2031 190.75 75.8906 190.75 72.8281C190.75 71.6406 190.906 70.4062 191.219 69.125C191.531 67.8438 191.984 66.5781 192.578 65.3281C193.203 64.0469 193.938 62.8438 194.781 61.7188C195.625 60.5625 196.578 59.5469 197.641 58.6719C198.703 57.7969 199.828 57.1094 201.016 56.6094C202.234 56.0781 203.516 55.8125 204.859 55.8125C207.109 56.0312 208.875 56.5938 210.156 57.5C211.438 58.375 212.406 59.5156 213.062 60.9219C213.719 62.2969 214.172 63.8438 214.422 65.5625C214.672 67.25 214.859 69 214.984 70.8125C215.141 72.625 215.328 74.4375 215.547 76.25C215.766 78.0625 216.219 79.7344 216.906 81.2656C216.5 82.2969 216.109 83.0156 215.734 83.4219C215.391 83.8594 215 83.9375 214.562 83.6562C214.125 83.375 213.609 82.6875 213.016 81.5938C212.453 80.5 211.75 78.9531 210.906 76.9531ZM194.734 72.9219C194.734 74.7031 195.062 76.0156 195.719 76.8594C196.406 77.6719 197.609 78.0781 199.328 78.0781C200.609 78.0781 201.828 77.8594 202.984 77.4219C204.172 76.9531 205.203 76.3281 206.078 75.5469C206.953 74.7344 207.656 73.7656 208.188 72.6406C208.719 71.5156 208.984 70.2656 208.984 68.8906C208.984 68.3281 209 67.5469 209.031 66.5469C209.062 65.5156 209 64.5 208.844 63.5C208.688 62.5 208.391 61.6406 207.953 60.9219C207.516 60.1719 206.859 59.7969 205.984 59.7969C204.359 59.7969 202.859 60.2188 201.484 61.0625C200.109 61.875 198.922 62.9219 197.922 64.2031C196.922 65.4844 196.141 66.9062 195.578 68.4688C195.016 70 194.734 71.4844 194.734 72.9219ZM220.984 56.4688C220.984 55.5625 220.922 54.6875 220.797 53.8438C220.672 52.9688 220.641 52.2031 220.703 51.5469C220.766 50.8594 221 50.3125 221.406 49.9062C221.844 49.5 222.625 49.2969 223.75 49.2969C224.094 50.0156 224.422 51.1094 224.734 52.5781C225.078 54.0469 225.406 55.7344 225.719 57.6406C226.031 59.5469 226.328 61.625 226.609 63.875C226.891 66.0938 227.141 68.3281 227.359 70.5781C227.609 72.8281 227.812 75.0469 227.969 77.2344C228.156 79.3906 228.297 81.3594 228.391 83.1406C227.359 83.8281 226.531 83.875 225.906 83.2812C225.281 82.6875 224.766 81.6875 224.359 80.2812C223.953 78.8438 223.641 77.1094 223.422 75.0781C223.203 73.0156 222.984 70.8906 222.766 68.7031C222.578 66.4844 222.344 64.3125 222.062 62.1875C221.781 60.0312 221.422 58.125 220.984 56.4688ZM252.531 51.2188C252.531 49.9062 252.906 48.8281 253.656 47.9844C254.438 47.1406 255.391 46.4844 256.516 46.0156C257.672 45.5156 258.906 45.1875 260.219 45.0312C261.531 44.8438 262.719 44.75 263.781 44.75C265.812 44.75 267.516 45.1562 268.891 45.9688C270.297 46.75 271.422 47.7969 272.266 49.1094C273.141 50.4219 273.766 51.9375 274.141 53.6562C274.516 55.375 274.703 57.125 274.703 58.9062C274.703 60.0938 274.578 61.5 274.328 63.125C274.078 64.7188 273.703 66.375 273.203 68.0938C272.703 69.7812 272.078 71.4688 271.328 73.1562C270.609 74.8125 269.766 76.3125 268.797 77.6562C267.828 78.9688 266.734 80.0312 265.516 80.8438C264.328 81.6562 263.016 82.0625 261.578 82.0625C261.297 82.0625 260.953 81.6875 260.547 80.9375C260.172 80.1562 259.734 79.125 259.234 77.8438C258.766 76.5625 258.266 75.0938 257.734 73.4375C257.234 71.75 256.734 70.0156 256.234 68.2344C255.734 66.4219 255.266 64.6094 254.828 62.7969C254.391 60.9844 253.984 59.3125 253.609 57.7812C253.266 56.25 253 54.9062 252.812 53.75C252.625 52.5938 252.531 51.75 252.531 51.2188ZM256.422 53.8906C256.422 54.8906 256.484 56.0312 256.609 57.3125C256.766 58.5938 256.984 59.9219 257.266 61.2969C257.578 62.6719 257.953 64.0625 258.391 65.4688C258.859 66.8438 259.391 68.1406 259.984 69.3594C260.578 70.5781 261.25 71.6875 262 72.6875C262.75 73.6562 263.594 74.4219 264.531 74.9844C265.594 73.4844 266.516 72.1406 267.297 70.9531C268.078 69.7656 268.719 68.5781 269.219 67.3906C269.719 66.2031 270.078 64.9375 270.297 63.5938C270.547 62.25 270.672 60.6875 270.672 58.9062C270.672 57.625 270.594 56.375 270.438 55.1562C270.281 53.9375 269.938 52.8594 269.406 51.9219C268.906 50.9531 268.188 50.1875 267.25 49.625C266.312 49.0312 265.078 48.7344 263.547 48.7344C262.297 48.7344 261.078 48.9375 259.891 49.3438C258.734 49.7188 257.609 50.2188 256.516 50.8438C256.516 50.9375 256.5 51.125 256.469 51.4062C256.469 51.6875 256.469 52 256.469 52.3438C256.469 52.6562 256.453 52.9688 256.422 53.2812C256.422 53.5625 256.422 53.7656 256.422 53.8906ZM276.531 69.9688C276.531 68.2812 276.734 66.5938 277.141 64.9062C277.547 63.2188 278.188 61.7031 279.062 60.3594C279.969 59.0156 281.125 57.9219 282.531 57.0781C283.969 56.2344 285.703 55.8125 287.734 55.8125C288.891 55.8125 289.906 56.0312 290.781 56.4688C291.656 56.875 292.391 57.4219 292.984 58.1094C293.578 58.7969 294.016 59.6094 294.297 60.5469C294.609 61.4531 294.766 62.4062 294.766 63.4062C294.766 65 294.391 66.5469 293.641 68.0469C292.922 69.5469 291.938 70.875 290.688 72.0312C289.469 73.1562 288.062 74.0156 286.469 74.6094C284.875 75.1719 283.25 75.2969 281.594 74.9844C281.625 75.8906 281.922 76.625 282.484 77.1875C283.078 77.7188 283.781 78.125 284.594 78.4062C285.406 78.6875 286.25 78.875 287.125 78.9688C288 79.0312 288.781 79.0625 289.469 79.0625C290.188 79.0625 290.859 79 291.484 78.875C292.109 78.75 292.734 78.6094 293.359 78.4531C293.984 78.2969 294.609 78.1562 295.234 78.0312C295.891 77.9062 296.578 77.8438 297.297 77.8438C297.578 77.8438 297.859 77.8594 298.141 77.8906C298.422 77.9219 298.688 78 298.938 78.125C299.188 78.2188 299.391 78.3906 299.547 78.6406C299.703 78.8594 299.781 79.1406 299.781 79.4844C299.781 80.0781 299.562 80.5781 299.125 80.9844C298.688 81.3594 298.125 81.6875 297.438 81.9688C296.781 82.25 296.047 82.4688 295.234 82.625C294.422 82.75 293.625 82.8594 292.844 82.9531C292.094 83.0156 291.391 83.0469 290.734 83.0469C290.109 83.0781 289.641 83.0938 289.328 83.0938C287.328 83.0938 285.531 82.7812 283.938 82.1562C282.344 81.5 281 80.6094 279.906 79.4844C278.812 78.3281 277.969 76.9531 277.375 75.3594C276.812 73.7344 276.531 71.9375 276.531 69.9688ZM281.5 66.9219C281.5 68.0156 281.641 68.8125 281.922 69.3125C282.234 69.8125 282.969 70.0625 284.125 70.0625C284.938 70.0625 285.734 69.9219 286.516 69.6406C287.297 69.3281 288 68.9062 288.625 68.375C289.281 67.8438 289.797 67.2188 290.172 66.5C290.547 65.7812 290.734 65 290.734 64.1562C290.734 63.6875 290.688 63.2031 290.594 62.7031C290.531 62.2031 290.375 61.75 290.125 61.3438C289.875 60.9062 289.547 60.5625 289.141 60.3125C288.766 60.0312 288.266 59.8906 287.641 59.8906C286.703 59.8906 285.844 60.1094 285.062 60.5469C284.312 60.9531 283.672 61.5 283.141 62.1875C282.609 62.8438 282.203 63.5938 281.922 64.4375C281.641 65.25 281.5 66.0781 281.5 66.9219ZM311.688 80.8906C312.188 80.5469 312.781 80.1094 313.469 79.5781C314.188 79.0156 314.906 78.4219 315.625 77.7969C316.344 77.1719 317.016 76.5156 317.641 75.8281C318.266 75.1406 318.75 74.4844 319.094 73.8594C319.469 73.2031 319.656 72.5938 319.656 72.0312C319.656 71.4688 319.375 71 318.812 70.625C317.812 70.625 316.719 70.6719 315.531 70.7656C314.344 70.8281 313.156 70.8594 311.969 70.8594C310.781 70.8281 309.625 70.7188 308.5 70.5312C307.406 70.3438 306.422 70 305.547 69.5C304.672 69 303.969 68.2969 303.438 67.3906C302.938 66.4531 302.688 65.2656 302.688 63.8281C302.688 62.1406 303 60.625 303.625 59.2812C304.281 57.9062 305.141 56.7031 306.203 55.6719C307.266 54.6094 308.453 53.6875 309.766 52.9062C311.109 52.0938 312.453 51.4062 313.797 50.8438C314.609 51.0625 315.359 51.4531 316.047 52.0156C316.734 52.5781 317.328 53.2031 317.828 53.8906C317.609 54.5781 317.172 55.1094 316.516 55.4844C315.891 55.8594 315.156 56.1875 314.312 56.4688C313.5 56.75 312.641 57.0469 311.734 57.3594C310.828 57.6719 310 58.0938 309.25 58.625C308.531 59.125 307.922 59.7969 307.422 60.6406C306.922 61.4531 306.672 62.5312 306.672 63.875C306.672 64.875 306.922 65.6094 307.422 66.0781C307.922 66.5469 308.578 66.875 309.391 67.0625C310.203 67.2188 311.125 67.2812 312.156 67.25C313.188 67.1875 314.234 67.1094 315.297 67.0156C316.391 66.9219 317.453 66.875 318.484 66.875C319.516 66.8438 320.438 66.9688 321.25 67.25C322.062 67.5 322.703 67.9219 323.172 68.5156C323.672 69.1094 323.922 69.9844 323.922 71.1406C323.922 71.6406 323.75 72.2812 323.406 73.0625C323.094 73.8438 322.656 74.6875 322.094 75.5938C321.562 76.4688 320.922 77.3438 320.172 78.2188C319.453 79.0938 318.688 79.8906 317.875 80.6094C317.094 81.2969 316.297 81.875 315.484 82.3438C314.703 82.7812 313.969 83 313.281 83C312.625 83 312.188 82.7656 311.969 82.2969C311.781 81.8281 311.688 81.3594 311.688 80.8906ZM327.766 65.4219C327.766 65.2344 327.766 64.9375 327.766 64.5312C327.797 64.0938 327.812 63.6406 327.812 63.1719C327.844 62.7031 327.859 62.25 327.859 61.8125C327.891 61.375 327.906 61.0625 327.906 60.875C328.25 60.375 328.688 59.9688 329.219 59.6562C329.781 59.3438 330.344 59.0938 330.906 58.9062C331 60.5938 331.266 62.3906 331.703 64.2969C332.141 66.2031 332.609 68.125 333.109 70.0625C333.609 71.9688 334.047 73.8594 334.422 75.7344C334.828 77.6094 335.031 79.3594 335.031 80.9844C335.031 82.3906 334.312 83.0938 332.875 83.0938C332 83.0938 331.266 82.7344 330.672 82.0156C330.078 81.2969 329.594 80.3906 329.219 79.2969C328.875 78.1719 328.594 76.9375 328.375 75.5938C328.156 74.2188 328 72.875 327.906 71.5625C327.844 70.25 327.797 69.0469 327.766 67.9531C327.766 66.8594 327.766 66.0156 327.766 65.4219ZM328.422 47.8438C329.016 48.0938 329.516 48.5 329.922 49.0625C330.328 49.625 330.5 50.1406 330.438 50.6094C330.406 51.0469 330.062 51.3594 329.406 51.5469C328.75 51.7031 327.656 51.5156 326.125 50.9844C326.125 50.1406 326.281 49.4062 326.594 48.7812C326.938 48.1562 327.547 47.8438 328.422 47.8438ZM348.953 107.938C350.703 107.938 352.266 107.609 353.641 106.953C355.016 106.328 356.172 105.453 357.109 104.328C358.078 103.234 358.812 101.969 359.312 100.531C359.844 99.125 360.109 97.6562 360.109 96.125C360.109 95.3438 360.062 94.3125 359.969 93.0312C359.906 91.75 359.797 90.3594 359.641 88.8594C359.484 87.3594 359.25 85.8281 358.938 84.2656C358.656 82.7031 358.297 81.2344 357.859 79.8594C357.422 78.4531 356.875 77.2344 356.219 76.2031C355.594 75.1406 354.859 74.3906 354.016 73.9531C353.203 74.5781 352.406 75.1562 351.625 75.6875C350.844 76.1875 350.031 76.6094 349.188 76.9531C348.344 77.2969 347.469 77.5781 346.562 77.7969C345.656 77.9844 344.688 78.0781 343.656 78.0781C342.312 78.0781 341.156 77.9531 340.188 77.7031C339.25 77.4531 338.453 77.0312 337.797 76.4375C337.172 75.8438 336.703 75.0625 336.391 74.0938C336.078 73.125 335.922 71.9062 335.922 70.4375C335.922 69.4062 336.172 68.4062 336.672 67.4375C337.172 66.4375 337.828 65.5156 338.641 64.6719C339.484 63.7969 340.422 63 341.453 62.2812C342.516 61.5625 343.594 60.9375 344.688 60.4062C345.812 59.875 346.906 59.4688 347.969 59.1875C349.062 58.9062 350.031 58.7656 350.875 58.7656C351.688 58.7656 352.359 58.7969 352.891 58.8594C353.422 58.8906 353.875 59.0156 354.25 59.2344C354.625 59.4219 354.938 59.7344 355.188 60.1719C355.469 60.5781 355.734 61.1406 355.984 61.8594C356.703 64.2969 357.531 66.9219 358.469 69.7344C359.406 72.5469 360.297 75.4375 361.141 78.4062C361.984 81.375 362.688 84.3594 363.25 87.3594C363.844 90.3906 364.141 93.3125 364.141 96.125C364.141 98.625 363.781 100.734 363.062 102.453C362.375 104.203 361.453 105.625 360.297 106.719C359.172 107.844 357.875 108.703 356.406 109.297C354.969 109.891 353.516 110.266 352.047 110.422C350.578 110.609 349.156 110.656 347.781 110.562C346.406 110.469 345.219 110.281 344.219 110C343.219 109.75 342.453 109.453 341.922 109.109C341.422 108.766 341.297 108.469 341.547 108.219C341.828 108 342.547 107.844 343.703 107.75C344.859 107.656 346.609 107.719 348.953 107.938ZM349.609 62.7031C347.297 63.2031 345.422 63.9062 343.984 64.8125C342.578 65.6875 341.516 66.6406 340.797 67.6719C340.109 68.6719 339.734 69.6875 339.672 70.7188C339.609 71.7188 339.797 72.5781 340.234 73.2969C340.672 74.0156 341.297 74.5625 342.109 74.9375C342.953 75.2812 343.906 75.2969 344.969 74.9844C346.031 74.6406 347.156 73.9219 348.344 72.8281C349.562 71.7344 350.781 70.1094 352 67.9531C352 67.4219 352 66.8438 352 66.2188C352.031 65.5938 351.984 65.0312 351.859 64.5312C351.734 64 351.5 63.5625 351.156 63.2188C350.812 62.875 350.297 62.7031 349.609 62.7031ZM364 67.2031C364 66.3906 364.203 65.8125 364.609 65.4688C365.016 65.0938 365.672 64.9062 366.578 64.9062H367.047C367.141 65.4062 367.25 65.9844 367.375 66.6406C367.5 67.2969 367.688 67.9688 367.938 68.6562C368.188 69.3438 368.484 69.9844 368.828 70.5781C369.172 71.1406 369.594 71.5938 370.094 71.9375C370.125 70.8438 370.391 69.7969 370.891 68.7969C371.422 67.7656 372.062 66.8594 372.812 66.0781C373.594 65.2656 374.438 64.5938 375.344 64.0625C376.281 63.5 377.203 63.125 378.109 62.9375H379.141C380.641 62.9375 381.922 63.2812 382.984 63.9688C384.047 64.625 384.922 65.5 385.609 66.5938C386.328 67.6562 386.875 68.875 387.25 70.25C387.625 71.625 387.906 73.0312 388.094 74.4688C388.312 75.875 388.438 77.25 388.469 78.5938C388.531 79.9062 388.562 81.0312 388.562 81.9688H385.141C384.953 80.0938 384.719 78.2969 384.438 76.5781C384.344 75.8906 384.219 75.1719 384.062 74.4219C383.906 73.6406 383.734 72.9219 383.547 72.2656C383.359 71.5781 383.156 70.9531 382.938 70.3906C382.719 69.7969 382.469 69.2969 382.188 68.8906C382.062 68.7656 381.891 68.5938 381.672 68.375C381.484 68.1562 381.281 67.9375 381.062 67.7188C380.844 67.5 380.641 67.3125 380.453 67.1562C380.266 67 380.156 66.9219 380.125 66.9219C379.188 66.6719 378.375 66.8594 377.688 67.4844C377 68.0781 376.391 68.8906 375.859 69.9219C375.328 70.9531 374.891 72.125 374.547 73.4375C374.234 74.75 373.969 76.0156 373.75 77.2344C373.531 78.4219 373.375 79.4688 373.281 80.375C373.188 81.25 373.125 81.7812 373.094 81.9688C372.312 82.5312 371.578 82.7031 370.891 82.4844C370.203 82.2344 369.547 81.7344 368.922 80.9844C368.328 80.2344 367.781 79.2969 367.281 78.1719C366.812 77.0469 366.375 75.8594 365.969 74.6094C365.562 73.3281 365.188 72.0469 364.844 70.7656C364.531 69.4844 364.25 68.2969 364 67.2031Z" fill="black"/>
<path d="M209.241 13.145C219.941 23.3987 234.207 27.8569 248.25 24.9591C260.117 22.5102 266.974 14.7053 271.878 5.78906" stroke="black" stroke-width="4" stroke-linecap="round"/>
<path d="M266.083 2L280.795 7.34977" stroke="black" stroke-width="4" stroke-linecap="round"/>
<path d="M215.668 7.7959L203 16.9934" stroke="black" stroke-width="4" stroke-linecap="round"/>
</svg>
