<svg width="679" height="660" viewBox="0 0 679 660" fill="none" xmlns="http://www.w3.org/2000/svg">
<rect y="340" width="320" height="320" rx="160" fill="#D5E1E5"/>
<rect x="359" y="340" width="320" height="320" rx="160" fill="#D5E1E5"/>
<rect x="359" width="320" height="320" rx="160" fill="#D5E1E5"/>
<rect width="320" height="320" rx="160" fill="#D5E1E5"/>
<path d="M114.114 169V151.545H124.58V153.42H116.227V159.318H123.795V161.193H116.227V169H114.114ZM131.779 169.307C130.95 169.307 130.197 169.151 129.521 168.838C128.844 168.52 128.308 168.062 127.91 167.466C127.512 166.864 127.313 166.136 127.313 165.284C127.313 164.534 127.461 163.926 127.756 163.46C128.052 162.989 128.447 162.619 128.941 162.352C129.435 162.085 129.981 161.886 130.577 161.756C131.18 161.619 131.785 161.511 132.393 161.432C133.188 161.33 133.833 161.253 134.327 161.202C134.827 161.145 135.191 161.051 135.418 160.92C135.651 160.79 135.768 160.562 135.768 160.239V160.17C135.768 159.33 135.538 158.676 135.077 158.21C134.623 157.744 133.933 157.511 133.006 157.511C132.046 157.511 131.293 157.722 130.748 158.142C130.202 158.562 129.819 159.011 129.597 159.489L127.688 158.807C128.029 158.011 128.484 157.392 129.052 156.949C129.626 156.5 130.251 156.187 130.927 156.011C131.609 155.83 132.279 155.739 132.938 155.739C133.359 155.739 133.842 155.79 134.387 155.892C134.938 155.989 135.469 156.19 135.981 156.497C136.498 156.804 136.927 157.267 137.268 157.886C137.609 158.506 137.779 159.335 137.779 160.375V169H135.768V167.227H135.665C135.529 167.511 135.302 167.815 134.984 168.139C134.665 168.463 134.242 168.739 133.714 168.966C133.185 169.193 132.54 169.307 131.779 169.307ZM132.086 167.5C132.881 167.5 133.552 167.344 134.097 167.031C134.648 166.719 135.063 166.315 135.342 165.821C135.626 165.327 135.768 164.807 135.768 164.261V162.42C135.683 162.523 135.495 162.616 135.205 162.702C134.921 162.781 134.592 162.852 134.217 162.915C133.847 162.972 133.487 163.023 133.134 163.068C132.788 163.108 132.506 163.142 132.29 163.17C131.768 163.239 131.279 163.349 130.825 163.503C130.376 163.651 130.012 163.875 129.734 164.176C129.461 164.472 129.325 164.875 129.325 165.386C129.325 166.085 129.583 166.614 130.1 166.972C130.623 167.324 131.285 167.5 132.086 167.5ZM141.45 169V155.909H143.462V169H141.45ZM142.473 153.727C142.081 153.727 141.743 153.594 141.459 153.327C141.18 153.06 141.041 152.739 141.041 152.364C141.041 151.989 141.18 151.668 141.459 151.401C141.743 151.134 142.081 151 142.473 151C142.865 151 143.2 151.134 143.479 151.401C143.763 151.668 143.905 151.989 143.905 152.364C143.905 152.739 143.763 153.06 143.479 153.327C143.2 153.594 142.865 153.727 142.473 153.727ZM147.146 169V155.909H149.089V157.886H149.225C149.464 157.239 149.896 156.713 150.521 156.31C151.146 155.906 151.85 155.705 152.634 155.705C152.782 155.705 152.967 155.707 153.188 155.713C153.41 155.719 153.577 155.727 153.691 155.739V157.784C153.623 157.767 153.467 157.741 153.222 157.707C152.984 157.668 152.731 157.648 152.464 157.648C151.827 157.648 151.259 157.781 150.759 158.048C150.265 158.31 149.873 158.673 149.583 159.139C149.299 159.599 149.157 160.125 149.157 160.716V169H147.146ZM158.087 161.125V169H156.075V155.909H158.018V157.955H158.189C158.496 157.29 158.962 156.756 159.587 156.352C160.212 155.943 161.018 155.739 162.007 155.739C162.893 155.739 163.669 155.92 164.334 156.284C164.999 156.642 165.516 157.188 165.885 157.92C166.254 158.648 166.439 159.568 166.439 160.682V169H164.428V160.818C164.428 159.79 164.161 158.989 163.626 158.415C163.092 157.835 162.359 157.545 161.428 157.545C160.786 157.545 160.212 157.685 159.706 157.963C159.206 158.241 158.811 158.648 158.521 159.182C158.232 159.716 158.087 160.364 158.087 161.125ZM175.603 169.273C174.342 169.273 173.254 168.994 172.339 168.438C171.43 167.875 170.728 167.091 170.234 166.085C169.745 165.074 169.501 163.898 169.501 162.557C169.501 161.216 169.745 160.034 170.234 159.011C170.728 157.983 171.415 157.182 172.296 156.608C173.183 156.028 174.217 155.739 175.398 155.739C176.08 155.739 176.754 155.852 177.418 156.08C178.083 156.307 178.688 156.676 179.234 157.188C179.779 157.693 180.214 158.364 180.538 159.199C180.862 160.034 181.023 161.062 181.023 162.284V163.136H170.933V161.398H178.978C178.978 160.659 178.83 160 178.535 159.42C178.245 158.841 177.83 158.384 177.29 158.048C176.756 157.713 176.126 157.545 175.398 157.545C174.597 157.545 173.904 157.744 173.319 158.142C172.739 158.534 172.293 159.045 171.981 159.676C171.668 160.307 171.512 160.983 171.512 161.705V162.864C171.512 163.852 171.683 164.69 172.023 165.378C172.37 166.06 172.85 166.58 173.464 166.938C174.077 167.29 174.79 167.466 175.603 167.466C176.131 167.466 176.609 167.392 177.035 167.244C177.467 167.091 177.839 166.864 178.151 166.562C178.464 166.256 178.705 165.875 178.876 165.42L180.819 165.966C180.614 166.625 180.271 167.205 179.788 167.705C179.305 168.199 178.708 168.585 177.998 168.864C177.288 169.136 176.489 169.273 175.603 169.273ZM193.356 158.841L191.549 159.352C191.435 159.051 191.268 158.759 191.046 158.474C190.83 158.185 190.535 157.946 190.16 157.759C189.785 157.571 189.305 157.477 188.719 157.477C187.918 157.477 187.251 157.662 186.717 158.031C186.188 158.395 185.924 158.858 185.924 159.42C185.924 159.92 186.106 160.315 186.469 160.605C186.833 160.895 187.401 161.136 188.174 161.33L190.117 161.807C191.288 162.091 192.16 162.526 192.734 163.111C193.308 163.69 193.594 164.437 193.594 165.352C193.594 166.102 193.379 166.773 192.947 167.364C192.521 167.955 191.924 168.42 191.157 168.761C190.39 169.102 189.498 169.273 188.481 169.273C187.146 169.273 186.04 168.983 185.165 168.403C184.29 167.824 183.737 166.977 183.504 165.864L185.413 165.386C185.594 166.091 185.938 166.619 186.444 166.972C186.955 167.324 187.623 167.5 188.447 167.5C189.384 167.5 190.129 167.301 190.68 166.903C191.237 166.5 191.515 166.017 191.515 165.455C191.515 165 191.356 164.619 191.038 164.312C190.719 164 190.231 163.767 189.572 163.614L187.39 163.102C186.191 162.818 185.31 162.378 184.748 161.781C184.191 161.179 183.913 160.426 183.913 159.523C183.913 158.784 184.12 158.131 184.535 157.562C184.955 156.994 185.526 156.548 186.248 156.224C186.975 155.901 187.799 155.739 188.719 155.739C190.015 155.739 191.032 156.023 191.771 156.591C192.515 157.159 193.043 157.909 193.356 158.841ZM205.895 158.841L204.088 159.352C203.974 159.051 203.807 158.759 203.585 158.474C203.369 158.185 203.074 157.946 202.699 157.759C202.324 157.571 201.844 157.477 201.259 157.477C200.457 157.477 199.79 157.662 199.256 158.031C198.727 158.395 198.463 158.858 198.463 159.42C198.463 159.92 198.645 160.315 199.009 160.605C199.372 160.895 199.94 161.136 200.713 161.33L202.656 161.807C203.827 162.091 204.699 162.526 205.273 163.111C205.847 163.69 206.134 164.437 206.134 165.352C206.134 166.102 205.918 166.773 205.486 167.364C205.06 167.955 204.463 168.42 203.696 168.761C202.929 169.102 202.037 169.273 201.02 169.273C199.685 169.273 198.58 168.983 197.705 168.403C196.83 167.824 196.276 166.977 196.043 165.864L197.952 165.386C198.134 166.091 198.477 166.619 198.983 166.972C199.494 167.324 200.162 167.5 200.986 167.5C201.923 167.5 202.668 167.301 203.219 166.903C203.776 166.5 204.054 166.017 204.054 165.455C204.054 165 203.895 164.619 203.577 164.312C203.259 164 202.77 163.767 202.111 163.614L199.929 163.102C198.73 162.818 197.849 162.378 197.287 161.781C196.73 161.179 196.452 160.426 196.452 159.523C196.452 158.784 196.659 158.131 197.074 157.562C197.494 156.994 198.065 156.548 198.787 156.224C199.514 155.901 200.338 155.739 201.259 155.739C202.554 155.739 203.571 156.023 204.31 156.591C205.054 157.159 205.582 157.909 205.895 158.841Z" fill="black"/>
<path d="M440.227 151.545V169H438.114V151.545H440.227ZM446.204 161.125V169H444.192V155.909H446.136V157.955H446.306C446.613 157.29 447.079 156.756 447.704 156.352C448.329 155.943 449.136 155.739 450.124 155.739C451.011 155.739 451.786 155.92 452.451 156.284C453.116 156.642 453.633 157.188 454.002 157.92C454.371 158.648 454.556 159.568 454.556 160.682V169H452.545V160.818C452.545 159.79 452.278 158.989 451.744 158.415C451.21 157.835 450.477 157.545 449.545 157.545C448.903 157.545 448.329 157.685 447.823 157.963C447.323 158.241 446.928 158.648 446.638 159.182C446.349 159.716 446.204 160.364 446.204 161.125ZM463.925 155.909V157.614H457.141V155.909H463.925ZM459.118 152.773H461.129V165.25C461.129 165.818 461.212 166.244 461.376 166.528C461.547 166.807 461.763 166.994 462.024 167.091C462.291 167.182 462.572 167.227 462.868 167.227C463.089 167.227 463.271 167.216 463.413 167.193C463.555 167.165 463.669 167.142 463.754 167.125L464.163 168.932C464.027 168.983 463.837 169.034 463.592 169.085C463.348 169.142 463.038 169.17 462.663 169.17C462.095 169.17 461.538 169.048 460.993 168.804C460.453 168.56 460.004 168.188 459.646 167.688C459.294 167.188 459.118 166.557 459.118 165.795V152.773ZM472.298 169.273C471.037 169.273 469.949 168.994 469.034 168.438C468.125 167.875 467.423 167.091 466.929 166.085C466.44 165.074 466.196 163.898 466.196 162.557C466.196 161.216 466.44 160.034 466.929 159.011C467.423 157.983 468.111 157.182 468.991 156.608C469.878 156.028 470.912 155.739 472.094 155.739C472.776 155.739 473.449 155.852 474.114 156.08C474.778 156.307 475.384 156.676 475.929 157.188C476.474 157.693 476.909 158.364 477.233 159.199C477.557 160.034 477.719 161.062 477.719 162.284V163.136H467.628V161.398H475.673C475.673 160.659 475.526 160 475.23 159.42C474.94 158.841 474.526 158.384 473.986 158.048C473.452 157.713 472.821 157.545 472.094 157.545C471.293 157.545 470.599 157.744 470.014 158.142C469.435 158.534 468.989 159.045 468.676 159.676C468.364 160.307 468.207 160.983 468.207 161.705V162.864C468.207 163.852 468.378 164.69 468.719 165.378C469.065 166.06 469.545 166.58 470.159 166.938C470.773 167.29 471.486 167.466 472.298 167.466C472.827 167.466 473.304 167.392 473.73 167.244C474.162 167.091 474.534 166.864 474.847 166.562C475.159 166.256 475.401 165.875 475.571 165.42L477.514 165.966C477.31 166.625 476.966 167.205 476.483 167.705C476 168.199 475.403 168.585 474.693 168.864C473.983 169.136 473.185 169.273 472.298 169.273ZM480.778 169V155.909H482.722V157.886H482.858C483.097 157.239 483.528 156.713 484.153 156.31C484.778 155.906 485.483 155.705 486.267 155.705C486.415 155.705 486.599 155.707 486.821 155.713C487.043 155.719 487.21 155.727 487.324 155.739V157.784C487.256 157.767 487.099 157.741 486.855 157.707C486.616 157.668 486.364 157.648 486.097 157.648C485.46 157.648 484.892 157.781 484.392 158.048C483.898 158.31 483.506 158.673 483.216 159.139C482.932 159.599 482.79 160.125 482.79 160.716V169H480.778ZM489.708 173.909V155.909H491.651V157.989H491.89C492.038 157.761 492.242 157.472 492.504 157.119C492.771 156.761 493.151 156.443 493.646 156.165C494.146 155.881 494.822 155.739 495.674 155.739C496.776 155.739 497.748 156.014 498.589 156.565C499.43 157.116 500.086 157.898 500.558 158.909C501.029 159.92 501.265 161.114 501.265 162.489C501.265 163.875 501.029 165.077 500.558 166.094C500.086 167.105 499.433 167.889 498.597 168.446C497.762 168.997 496.799 169.273 495.708 169.273C494.867 169.273 494.194 169.134 493.688 168.855C493.183 168.571 492.793 168.25 492.521 167.892C492.248 167.528 492.038 167.227 491.89 166.989H491.719V173.909H489.708ZM491.685 162.455C491.685 163.443 491.83 164.315 492.12 165.071C492.41 165.821 492.833 166.409 493.39 166.835C493.947 167.256 494.629 167.466 495.435 167.466C496.276 167.466 496.978 167.244 497.54 166.801C498.109 166.352 498.535 165.75 498.819 164.994C499.109 164.233 499.254 163.386 499.254 162.455C499.254 161.534 499.112 160.705 498.827 159.966C498.549 159.222 498.126 158.634 497.558 158.202C496.995 157.764 496.288 157.545 495.435 157.545C494.617 157.545 493.93 157.753 493.373 158.168C492.816 158.577 492.396 159.151 492.112 159.889C491.827 160.622 491.685 161.477 491.685 162.455ZM504.333 169V155.909H506.276V157.886H506.413C506.651 157.239 507.083 156.713 507.708 156.31C508.333 155.906 509.038 155.705 509.822 155.705C509.969 155.705 510.154 155.707 510.376 155.713C510.597 155.719 510.765 155.727 510.879 155.739V157.784C510.81 157.767 510.654 157.741 510.41 157.707C510.171 157.668 509.918 157.648 509.651 157.648C509.015 157.648 508.447 157.781 507.947 158.048C507.452 158.31 507.06 158.673 506.771 159.139C506.487 159.599 506.344 160.125 506.344 160.716V169H504.333ZM518.353 169.273C517.092 169.273 516.004 168.994 515.089 168.438C514.18 167.875 513.478 167.091 512.984 166.085C512.495 165.074 512.251 163.898 512.251 162.557C512.251 161.216 512.495 160.034 512.984 159.011C513.478 157.983 514.165 157.182 515.046 156.608C515.933 156.028 516.967 155.739 518.148 155.739C518.83 155.739 519.504 155.852 520.168 156.08C520.833 156.307 521.438 156.676 521.984 157.188C522.529 157.693 522.964 158.364 523.288 159.199C523.612 160.034 523.773 161.062 523.773 162.284V163.136H513.683V161.398H521.728C521.728 160.659 521.58 160 521.285 159.42C520.995 158.841 520.58 158.384 520.04 158.048C519.506 157.713 518.876 157.545 518.148 157.545C517.347 157.545 516.654 157.744 516.069 158.142C515.489 158.534 515.043 159.045 514.731 159.676C514.418 160.307 514.262 160.983 514.262 161.705V162.864C514.262 163.852 514.433 164.69 514.773 165.378C515.12 166.06 515.6 166.58 516.214 166.938C516.827 167.29 517.54 167.466 518.353 167.466C518.881 167.466 519.359 167.392 519.785 167.244C520.217 167.091 520.589 166.864 520.901 166.562C521.214 166.256 521.455 165.875 521.626 165.42L523.569 165.966C523.364 166.625 523.021 167.205 522.538 167.705C522.055 168.199 521.458 168.585 520.748 168.864C520.038 169.136 519.239 169.273 518.353 169.273ZM532.526 155.909V157.614H525.742V155.909H532.526ZM527.719 152.773H529.731V165.25C529.731 165.818 529.813 166.244 529.978 166.528C530.148 166.807 530.364 166.994 530.626 167.091C530.893 167.182 531.174 167.227 531.469 167.227C531.691 167.227 531.873 167.216 532.015 167.193C532.157 167.165 532.271 167.142 532.356 167.125L532.765 168.932C532.629 168.983 532.438 169.034 532.194 169.085C531.95 169.142 531.64 169.17 531.265 169.17C530.697 169.17 530.14 169.048 529.594 168.804C529.055 168.56 528.606 168.188 528.248 167.688C527.896 167.188 527.719 166.557 527.719 165.795V152.773ZM539.404 169.307C538.575 169.307 537.822 169.151 537.146 168.838C536.469 168.52 535.933 168.062 535.535 167.466C535.137 166.864 534.938 166.136 534.938 165.284C534.938 164.534 535.086 163.926 535.381 163.46C535.677 162.989 536.072 162.619 536.566 162.352C537.06 162.085 537.606 161.886 538.202 161.756C538.805 161.619 539.41 161.511 540.018 161.432C540.813 161.33 541.458 161.253 541.952 161.202C542.452 161.145 542.816 161.051 543.043 160.92C543.276 160.79 543.393 160.562 543.393 160.239V160.17C543.393 159.33 543.163 158.676 542.702 158.21C542.248 157.744 541.558 157.511 540.631 157.511C539.671 157.511 538.918 157.722 538.373 158.142C537.827 158.562 537.444 159.011 537.222 159.489L535.313 158.807C535.654 158.011 536.109 157.392 536.677 156.949C537.251 156.5 537.876 156.187 538.552 156.011C539.234 155.83 539.904 155.739 540.563 155.739C540.984 155.739 541.467 155.79 542.012 155.892C542.563 155.989 543.094 156.19 543.606 156.497C544.123 156.804 544.552 157.267 544.893 157.886C545.234 158.506 545.404 159.335 545.404 160.375V169H543.393V167.227H543.29C543.154 167.511 542.927 167.815 542.609 168.139C542.29 168.463 541.867 168.739 541.339 168.966C540.81 169.193 540.165 169.307 539.404 169.307ZM539.711 167.5C540.506 167.5 541.177 167.344 541.722 167.031C542.273 166.719 542.688 166.315 542.967 165.821C543.251 165.327 543.393 164.807 543.393 164.261V162.42C543.308 162.523 543.12 162.616 542.83 162.702C542.546 162.781 542.217 162.852 541.842 162.915C541.472 162.972 541.112 163.023 540.759 163.068C540.413 163.108 540.131 163.142 539.915 163.17C539.393 163.239 538.904 163.349 538.45 163.503C538.001 163.651 537.637 163.875 537.359 164.176C537.086 164.472 536.95 164.875 536.95 165.386C536.95 166.085 537.208 166.614 537.725 166.972C538.248 167.324 538.91 167.5 539.711 167.5ZM549.348 169V151.545H551.359V157.989H551.53C551.678 157.761 551.882 157.472 552.143 157.119C552.411 156.761 552.791 156.443 553.286 156.165C553.786 155.881 554.462 155.739 555.314 155.739C556.416 155.739 557.388 156.014 558.229 156.565C559.07 157.116 559.726 157.898 560.197 158.909C560.669 159.92 560.905 161.114 560.905 162.489C560.905 163.875 560.669 165.077 560.197 166.094C559.726 167.105 559.072 167.889 558.237 168.446C557.402 168.997 556.439 169.273 555.348 169.273C554.507 169.273 553.834 169.134 553.328 168.855C552.822 168.571 552.433 168.25 552.161 167.892C551.888 167.528 551.678 167.227 551.53 166.989H551.291V169H549.348ZM551.325 162.455C551.325 163.443 551.47 164.315 551.76 165.071C552.05 165.821 552.473 166.409 553.03 166.835C553.587 167.256 554.268 167.466 555.075 167.466C555.916 167.466 556.618 167.244 557.18 166.801C557.749 166.352 558.175 165.75 558.459 164.994C558.749 164.233 558.893 163.386 558.893 162.455C558.893 161.534 558.751 160.705 558.467 159.966C558.189 159.222 557.766 158.634 557.197 158.202C556.635 157.764 555.928 157.545 555.075 157.545C554.257 157.545 553.57 157.753 553.013 158.168C552.456 158.577 552.036 159.151 551.751 159.889C551.467 160.622 551.325 161.477 551.325 162.455ZM563.982 169V155.909H565.993V169H563.982ZM565.004 153.727C564.612 153.727 564.274 153.594 563.99 153.327C563.712 153.06 563.572 152.739 563.572 152.364C563.572 151.989 563.712 151.668 563.99 151.401C564.274 151.134 564.612 151 565.004 151C565.396 151 565.732 151.134 566.01 151.401C566.294 151.668 566.436 151.989 566.436 152.364C566.436 152.739 566.294 153.06 566.01 153.327C565.732 153.594 565.396 153.727 565.004 153.727ZM571.688 151.545V169H569.677V151.545H571.688ZM575.372 169V155.909H577.384V169H575.372ZM576.395 153.727C576.003 153.727 575.665 153.594 575.381 153.327C575.102 153.06 574.963 152.739 574.963 152.364C574.963 151.989 575.102 151.668 575.381 151.401C575.665 151.134 576.003 151 576.395 151C576.787 151 577.122 151.134 577.401 151.401C577.685 151.668 577.827 151.989 577.827 152.364C577.827 152.739 577.685 153.06 577.401 153.327C577.122 153.594 576.787 153.727 576.395 153.727ZM586.761 155.909V157.614H579.977V155.909H586.761ZM581.954 152.773H583.965V165.25C583.965 165.818 584.048 166.244 584.212 166.528C584.383 166.807 584.599 166.994 584.86 167.091C585.127 167.182 585.408 167.227 585.704 167.227C585.925 167.227 586.107 167.216 586.249 167.193C586.391 167.165 586.505 167.142 586.59 167.125L586.999 168.932C586.863 168.983 586.673 169.034 586.428 169.085C586.184 169.142 585.874 169.17 585.499 169.17C584.931 169.17 584.374 169.048 583.829 168.804C583.289 168.56 582.84 168.188 582.482 167.688C582.13 167.188 581.954 166.557 581.954 165.795V152.773ZM591.082 173.909C590.741 173.909 590.437 173.881 590.17 173.824C589.903 173.773 589.718 173.722 589.616 173.67L590.127 171.898C590.616 172.023 591.048 172.068 591.423 172.034C591.798 172 592.13 171.832 592.42 171.531C592.715 171.236 592.985 170.756 593.229 170.091L593.604 169.068L588.763 155.909H590.945L594.559 166.341H594.695L598.309 155.909H600.491L594.934 170.909C594.684 171.585 594.374 172.145 594.005 172.588C593.636 173.037 593.207 173.369 592.718 173.585C592.235 173.801 591.69 173.909 591.082 173.909Z" fill="black"/>
<path d="M120.114 509V491.545H126.011C127.381 491.545 128.5 491.793 129.369 492.287C130.244 492.776 130.892 493.438 131.312 494.273C131.733 495.108 131.943 496.04 131.943 497.068C131.943 498.097 131.733 499.031 131.312 499.872C130.898 500.713 130.256 501.384 129.386 501.884C128.517 502.378 127.403 502.625 126.045 502.625H121.818V500.75H125.977C126.915 500.75 127.668 500.588 128.236 500.264C128.804 499.94 129.216 499.503 129.472 498.952C129.733 498.395 129.864 497.767 129.864 497.068C129.864 496.369 129.733 495.744 129.472 495.193C129.216 494.642 128.801 494.21 128.227 493.898C127.653 493.58 126.892 493.42 125.943 493.42H122.227V509H120.114ZM135.075 509V495.909H137.018V497.886H137.155C137.393 497.239 137.825 496.713 138.45 496.31C139.075 495.906 139.78 495.705 140.564 495.705C140.712 495.705 140.896 495.707 141.118 495.713C141.339 495.719 141.507 495.727 141.621 495.739V497.784C141.553 497.767 141.396 497.741 141.152 497.707C140.913 497.668 140.661 497.648 140.393 497.648C139.757 497.648 139.189 497.781 138.689 498.048C138.195 498.31 137.803 498.673 137.513 499.139C137.229 499.599 137.087 500.125 137.087 500.716V509H135.075ZM144.005 509V495.909H146.016V509H144.005ZM145.028 493.727C144.636 493.727 144.298 493.594 144.013 493.327C143.735 493.06 143.596 492.739 143.596 492.364C143.596 491.989 143.735 491.668 144.013 491.401C144.298 491.134 144.636 491 145.028 491C145.42 491 145.755 491.134 146.033 491.401C146.317 491.668 146.46 491.989 146.46 492.364C146.46 492.739 146.317 493.06 146.033 493.327C145.755 493.594 145.42 493.727 145.028 493.727ZM160.405 495.909L155.564 509H153.518L148.678 495.909H150.859L154.473 506.341H154.609L158.223 495.909H160.405ZM166.513 509.307C165.684 509.307 164.931 509.151 164.255 508.838C163.579 508.52 163.042 508.062 162.644 507.466C162.246 506.864 162.048 506.136 162.048 505.284C162.048 504.534 162.195 503.926 162.491 503.46C162.786 502.989 163.181 502.619 163.675 502.352C164.17 502.085 164.715 501.886 165.312 501.756C165.914 501.619 166.519 501.511 167.127 501.432C167.923 501.33 168.567 501.253 169.062 501.202C169.562 501.145 169.925 501.051 170.153 500.92C170.386 500.79 170.502 500.562 170.502 500.239V500.17C170.502 499.33 170.272 498.676 169.812 498.21C169.357 497.744 168.667 497.511 167.741 497.511C166.781 497.511 166.028 497.722 165.482 498.142C164.937 498.562 164.553 499.011 164.332 499.489L162.423 498.807C162.763 498.011 163.218 497.392 163.786 496.949C164.36 496.5 164.985 496.187 165.661 496.011C166.343 495.83 167.013 495.739 167.673 495.739C168.093 495.739 168.576 495.79 169.121 495.892C169.673 495.989 170.204 496.19 170.715 496.497C171.232 496.804 171.661 497.267 172.002 497.886C172.343 498.506 172.513 499.335 172.513 500.375V509H170.502V507.227H170.4C170.263 507.511 170.036 507.815 169.718 508.139C169.4 508.463 168.977 508.739 168.448 508.966C167.92 509.193 167.275 509.307 166.513 509.307ZM166.82 507.5C167.616 507.5 168.286 507.344 168.832 507.031C169.383 506.719 169.798 506.315 170.076 505.821C170.36 505.327 170.502 504.807 170.502 504.261V502.42C170.417 502.523 170.229 502.616 169.94 502.702C169.656 502.781 169.326 502.852 168.951 502.915C168.582 502.972 168.221 503.023 167.869 503.068C167.522 503.108 167.241 503.142 167.025 503.17C166.502 503.239 166.013 503.349 165.559 503.503C165.11 503.651 164.746 503.875 164.468 504.176C164.195 504.472 164.059 504.875 164.059 505.386C164.059 506.085 164.317 506.614 164.835 506.972C165.357 507.324 166.019 507.5 166.82 507.5ZM181.503 509.273C180.276 509.273 179.219 508.983 178.332 508.403C177.446 507.824 176.764 507.026 176.287 506.009C175.81 504.991 175.571 503.83 175.571 502.523C175.571 501.193 175.815 500.02 176.304 499.003C176.798 497.98 177.486 497.182 178.366 496.608C179.253 496.028 180.287 495.739 181.469 495.739C182.389 495.739 183.219 495.909 183.957 496.25C184.696 496.591 185.301 497.068 185.773 497.682C186.244 498.295 186.537 499.011 186.651 499.83H184.639C184.486 499.233 184.145 498.705 183.616 498.244C183.094 497.778 182.389 497.545 181.503 497.545C180.719 497.545 180.031 497.75 179.44 498.159C178.855 498.562 178.398 499.134 178.068 499.872C177.744 500.605 177.582 501.466 177.582 502.455C177.582 503.466 177.741 504.347 178.06 505.097C178.384 505.847 178.838 506.429 179.423 506.844C180.014 507.259 180.707 507.466 181.503 507.466C182.026 507.466 182.5 507.375 182.926 507.193C183.352 507.011 183.713 506.75 184.009 506.409C184.304 506.068 184.514 505.659 184.639 505.182H186.651C186.537 505.955 186.256 506.651 185.807 507.27C185.364 507.884 184.776 508.372 184.043 508.736C183.315 509.094 182.469 509.273 181.503 509.273ZM190.886 513.909C190.545 513.909 190.241 513.881 189.974 513.824C189.707 513.773 189.523 513.722 189.42 513.67L189.932 511.898C190.42 512.023 190.852 512.068 191.227 512.034C191.602 512 191.935 511.832 192.224 511.531C192.52 511.236 192.79 510.756 193.034 510.091L193.409 509.068L188.568 495.909H190.75L194.364 506.341H194.5L198.114 495.909H200.295L194.739 510.909C194.489 511.585 194.179 512.145 193.81 512.588C193.44 513.037 193.011 513.369 192.523 513.585C192.04 513.801 191.494 513.909 190.886 513.909Z" fill="black"/>
<path d="M483.659 495.909C483.557 495.045 483.142 494.375 482.415 493.898C481.688 493.42 480.795 493.182 479.739 493.182C478.966 493.182 478.29 493.307 477.71 493.557C477.136 493.807 476.688 494.151 476.364 494.588C476.045 495.026 475.886 495.523 475.886 496.08C475.886 496.545 475.997 496.946 476.219 497.281C476.446 497.611 476.736 497.886 477.088 498.108C477.44 498.324 477.81 498.503 478.196 498.645C478.582 498.781 478.938 498.892 479.261 498.977L481.034 499.455C481.489 499.574 481.994 499.739 482.551 499.949C483.114 500.159 483.651 500.446 484.162 500.81C484.679 501.168 485.105 501.628 485.44 502.19C485.776 502.753 485.943 503.443 485.943 504.261C485.943 505.205 485.696 506.057 485.202 506.818C484.713 507.58 483.997 508.185 483.054 508.634C482.116 509.082 480.977 509.307 479.636 509.307C478.386 509.307 477.304 509.105 476.389 508.702C475.48 508.298 474.764 507.736 474.241 507.014C473.724 506.293 473.432 505.455 473.364 504.5H475.545C475.602 505.159 475.824 505.705 476.21 506.136C476.602 506.562 477.097 506.881 477.693 507.091C478.295 507.295 478.943 507.398 479.636 507.398C480.443 507.398 481.168 507.267 481.81 507.006C482.452 506.739 482.96 506.369 483.335 505.898C483.71 505.42 483.898 504.864 483.898 504.227C483.898 503.648 483.736 503.176 483.412 502.812C483.088 502.449 482.662 502.153 482.134 501.926C481.605 501.699 481.034 501.5 480.42 501.33L478.273 500.716C476.909 500.324 475.83 499.764 475.034 499.037C474.239 498.31 473.841 497.358 473.841 496.182C473.841 495.205 474.105 494.352 474.634 493.625C475.168 492.892 475.884 492.324 476.781 491.92C477.685 491.511 478.693 491.307 479.807 491.307C480.932 491.307 481.932 491.509 482.807 491.912C483.682 492.31 484.375 492.855 484.886 493.548C485.403 494.241 485.676 495.028 485.705 495.909H483.659ZM494.634 509.273C493.373 509.273 492.285 508.994 491.37 508.438C490.461 507.875 489.759 507.091 489.265 506.085C488.776 505.074 488.532 503.898 488.532 502.557C488.532 501.216 488.776 500.034 489.265 499.011C489.759 497.983 490.447 497.182 491.327 496.608C492.214 496.028 493.248 495.739 494.43 495.739C495.112 495.739 495.785 495.852 496.45 496.08C497.114 496.307 497.719 496.676 498.265 497.188C498.81 497.693 499.245 498.364 499.569 499.199C499.893 500.034 500.055 501.062 500.055 502.284V503.136H489.964V501.398H498.009C498.009 500.659 497.862 500 497.566 499.42C497.276 498.841 496.862 498.384 496.322 498.048C495.788 497.713 495.157 497.545 494.43 497.545C493.629 497.545 492.935 497.744 492.35 498.142C491.771 498.534 491.325 499.045 491.012 499.676C490.7 500.307 490.543 500.983 490.543 501.705V502.864C490.543 503.852 490.714 504.69 491.055 505.378C491.401 506.06 491.881 506.58 492.495 506.938C493.109 507.29 493.822 507.466 494.634 507.466C495.163 507.466 495.64 507.392 496.066 507.244C496.498 507.091 496.87 506.864 497.183 506.562C497.495 506.256 497.737 505.875 497.907 505.42L499.85 505.966C499.646 506.625 499.302 507.205 498.819 507.705C498.336 508.199 497.739 508.585 497.029 508.864C496.319 509.136 495.521 509.273 494.634 509.273ZM508.433 509.273C507.205 509.273 506.148 508.983 505.262 508.403C504.376 507.824 503.694 507.026 503.217 506.009C502.739 504.991 502.501 503.83 502.501 502.523C502.501 501.193 502.745 500.02 503.234 499.003C503.728 497.98 504.415 497.182 505.296 496.608C506.183 496.028 507.217 495.739 508.398 495.739C509.319 495.739 510.148 495.909 510.887 496.25C511.626 496.591 512.231 497.068 512.702 497.682C513.174 498.295 513.467 499.011 513.58 499.83H511.569C511.415 499.233 511.075 498.705 510.546 498.244C510.023 497.778 509.319 497.545 508.433 497.545C507.648 497.545 506.961 497.75 506.37 498.159C505.785 498.562 505.327 499.134 504.998 499.872C504.674 500.605 504.512 501.466 504.512 502.455C504.512 503.466 504.671 504.347 504.989 505.097C505.313 505.847 505.768 506.429 506.353 506.844C506.944 507.259 507.637 507.466 508.433 507.466C508.955 507.466 509.43 507.375 509.856 507.193C510.282 507.011 510.643 506.75 510.938 506.409C511.234 506.068 511.444 505.659 511.569 505.182H513.58C513.467 505.955 513.185 506.651 512.737 507.27C512.293 507.884 511.705 508.372 510.972 508.736C510.245 509.094 509.398 509.273 508.433 509.273ZM524.771 503.648V495.909H526.782V509H524.771V506.784H524.634C524.327 507.449 523.85 508.014 523.202 508.48C522.555 508.94 521.737 509.17 520.748 509.17C519.93 509.17 519.202 508.991 518.566 508.634C517.93 508.27 517.43 507.724 517.066 506.997C516.702 506.264 516.521 505.341 516.521 504.227V495.909H518.532V504.091C518.532 505.045 518.799 505.807 519.333 506.375C519.873 506.943 520.56 507.227 521.396 507.227C521.896 507.227 522.404 507.099 522.921 506.844C523.444 506.588 523.881 506.196 524.234 505.668C524.592 505.139 524.771 504.466 524.771 503.648ZM530.466 509V495.909H532.409V497.886H532.545C532.784 497.239 533.216 496.713 533.841 496.31C534.466 495.906 535.17 495.705 535.955 495.705C536.102 495.705 536.287 495.707 536.509 495.713C536.73 495.719 536.898 495.727 537.011 495.739V497.784C536.943 497.767 536.787 497.741 536.543 497.707C536.304 497.668 536.051 497.648 535.784 497.648C535.148 497.648 534.58 497.781 534.08 498.048C533.585 498.31 533.193 498.673 532.903 499.139C532.619 499.599 532.477 500.125 532.477 500.716V509H530.466ZM539.396 509V495.909H541.407V509H539.396ZM540.418 493.727C540.026 493.727 539.688 493.594 539.404 493.327C539.126 493.06 538.987 492.739 538.987 492.364C538.987 491.989 539.126 491.668 539.404 491.401C539.688 491.134 540.026 491 540.418 491C540.81 491 541.146 491.134 541.424 491.401C541.708 491.668 541.85 491.989 541.85 492.364C541.85 492.739 541.708 493.06 541.424 493.327C541.146 493.594 540.81 493.727 540.418 493.727ZM550.784 495.909V497.614H544V495.909H550.784ZM545.977 492.773H547.989V505.25C547.989 505.818 548.071 506.244 548.236 506.528C548.406 506.807 548.622 506.994 548.884 507.091C549.151 507.182 549.432 507.227 549.727 507.227C549.949 507.227 550.131 507.216 550.273 507.193C550.415 507.165 550.528 507.142 550.614 507.125L551.023 508.932C550.886 508.983 550.696 509.034 550.452 509.085C550.207 509.142 549.898 509.17 549.523 509.17C548.955 509.17 548.398 509.048 547.852 508.804C547.313 508.56 546.864 508.188 546.506 507.688C546.153 507.188 545.977 506.557 545.977 505.795V492.773ZM555.105 513.909C554.764 513.909 554.46 513.881 554.193 513.824C553.926 513.773 553.741 513.722 553.639 513.67L554.151 511.898C554.639 512.023 555.071 512.068 555.446 512.034C555.821 512 556.153 511.832 556.443 511.531C556.739 511.236 557.009 510.756 557.253 510.091L557.628 509.068L552.787 495.909H554.969L558.582 506.341H558.719L562.332 495.909H564.514L558.957 510.909C558.707 511.585 558.398 512.145 558.028 512.588C557.659 513.037 557.23 513.369 556.741 513.585C556.259 513.801 555.713 513.909 555.105 513.909Z" fill="black"/>
<path d="M294.148 303.641H305.844L311.938 314.211L317.844 303.641H329.422L318.734 320.281L330.43 338H318.5L311.727 326.961L304.93 338H293.07L304.93 320.094L294.148 303.641ZM355.016 332.328H342.922L341.258 338H330.406L343.32 303.641H354.898L367.812 338H356.703L355.016 332.328ZM352.789 324.898L348.992 312.547L345.219 324.898H352.789ZM371.656 303.641H382.297V338H371.656V303.641Z" fill="#D5E1E5"/>
<path d="M293 345.43H386.398V348.312H293V345.43Z" fill="#D5E1E5"/>
</svg>
