<svg xmlns="http://www.w3.org/2000/svg" viewBox="0 0 149.93799 54.26074"><g id="Layer_2" data-name="Layer 2"><g id="Layer_1-2" data-name="Layer 1"><path d="M0,27.35156q0-12.832,6.89062-20.09179Q13.78053.00073,24.67969,0A24.68316,24.68316,0,0,1,37.54688,3.41016a22.27655,22.27655,0,0,1,8.73632,9.50976,30.88769,30.88769,0,0,1,3.00586,13.834A30.36866,30.36866,0,0,1,46.125,40.78125a21.59906,21.59906,0,0,1-8.96484,9.36914A25.60823,25.60823,0,0,1,24.64453,53.332a24.36885,24.36885,0,0,1-13.00781-3.51562,22.618,22.618,0,0,1-8.6836-9.59766A29.08671,29.08671,0,0,1,0,27.35156Zm7.03125.10547q0,9.31641,5.00977,14.67774a16.47831,16.47831,0,0,0,12.56836,5.36132A16.45371,16.45371,0,0,0,37.2832,42.082q4.97461-5.41334,4.97461-15.36328a26.40264,26.40264,0,0,0-2.127-10.98633A16.34822,16.34822,0,0,0,33.9082,8.45508a16.87149,16.87149,0,0,0-9.19336-2.584A17.43813,17.43813,0,0,0,12.252,10.8457Q7.03125,15.82105,7.03125,27.457Z"/><path d="M66.79834,45.12012a14.67064,14.67064,0,0,0,9.70312,3.30468A16.70966,16.70966,0,0,0,85.25537,45.999a14.27292,14.27292,0,0,0,5.959-7.33007,31.43907,31.43907,0,0,0,1.916-11.47852A30.78613,30.78613,0,0,0,91.51318,17.294a15.03515,15.03515,0,0,0-5.60742-7.64649A16.66167,16.66167,0,0,0,75.97412,6.7998,13.86809,13.86809,0,0,0,67.396,9.36621q-3.40942,2.56641-5.20313,8.19141l-6.71484-1.582A20.45028,20.45028,0,0,1,62.82568,4.90137,21.1326,21.1326,0,0,1,75.8335.96387a25.57469,25.57469,0,0,1,12.498,3.11133,21.07893,21.07893,0,0,1,8.75391,9.10546,30.36524,30.36524,0,0,1,3.07617,14.04493A35.05984,35.05984,0,0,1,97.437,41.042a21.18062,21.18062,0,0,1-7.94531,9.82617Q84.271,54.26148,75.939,54.26074a21.2635,21.2635,0,0,1-13.623-4.41211q-5.57154-4.41138-7.7168-12.81445l6.82031-1.72266Q62.82568,41.81617,66.79834,45.12012Z"/><path d="M110.59814,53.31641V1.77734h19.44141a46.94492,46.94492,0,0,1,7.83984.49219,15.53771,15.53771,0,0,1,6.36329,2.4082,12.6432,12.6432,0,0,1,4.13086,4.97461,15.79615,15.79615,0,0,1,1.56445,7.03125,15.84307,15.84307,0,0,1-4.1836,11.127q-4.18433,4.55346-15.11718,4.55273H117.41846V53.31641Zm6.82032-27.03516h13.32422q6.60938,0,9.38671-2.46094a8.76945,8.76945,0,0,0,2.77735-6.92578,9.31575,9.31575,0,0,0-1.63477-5.53711,7.64548,7.64548,0,0,0-4.30664-3.041,29.17332,29.17332,0,0,0-6.36328-.457H117.41846Z"/></g></g></svg>