<svg xmlns="http://www.w3.org/2000/svg" viewBox="0 0 156.35596 50.0874"><g id="Layer_2" data-name="Layer 2"><g id="Layer_1-2" data-name="Layer 1"><path d="M49.97363,25.10059a24.11771,24.11771,0,0,1-7.35986,17.68652A24.016,24.016,0,0,1,24.98682,50.0874a24.21315,24.21315,0,0,1-17.687-7.30029A24.21353,24.21353,0,0,1,0,25.10059,24.01941,24.01941,0,0,1,7.2998,7.47314,24.11837,24.11837,0,0,1,24.98682.11377a23.92266,23.92266,0,0,1,17.627,7.35937A23.925,23.925,0,0,1,49.97363,25.10059Zm-3.08642,0A21.03605,21.03605,0,0,0,40.47705,9.66943,21.10286,21.10286,0,0,0,24.98682,3.25928,21.0348,21.0348,0,0,0,9.55518,9.66943,21.03749,21.03749,0,0,0,3.14551,25.10059,21.03436,21.03436,0,0,0,9.55518,40.53174a21.03476,21.03476,0,0,0,15.43164,6.41015A21.26194,21.26194,0,0,0,40.418,40.59131,21.01131,21.01131,0,0,0,46.88721,25.10059Zm-6.291,0a15.04145,15.04145,0,0,1-4.57031,11.03955A15.04,15.04,0,0,1,24.98682,40.71a15.03722,15.03722,0,0,1-11.03955-4.56982A15.03722,15.03722,0,0,1,9.37744,25.10059a15.04,15.04,0,0,1,4.56983-11.03907A15.04146,15.04146,0,0,1,24.98682,9.49121a15.04429,15.04429,0,0,1,11.03906,4.57031A15.04427,15.04427,0,0,1,40.59619,25.10059Zm-3.08642,0a12.06079,12.06079,0,0,0-3.67969-8.84327,12.06155,12.06155,0,0,0-8.84326-3.67968,11.99,11.99,0,0,0-8.78418,3.67968A12.057,12.057,0,0,0,12.523,25.10059a12.02857,12.02857,0,0,0,3.62012,8.84326,12.05538,12.05538,0,0,0,8.84375,3.67969,12.05587,12.05587,0,0,0,8.84326-3.67969A12.05921,12.05921,0,0,0,37.50977,25.10059Z"/><path d="M89.90723,24.98682a12.46163,12.46163,0,0,0-12.46387-12.523A12.54941,12.54941,0,0,0,65.69189,20.832l-.41552,1.00928H52.5752l.35644-1.83985a24.33511,24.33511,0,0,1,8.665-14.36328A25.08178,25.08178,0,0,1,95.13037,7.30029a24.2135,24.2135,0,0,1,7.29981,17.68653,24.01937,24.01937,0,0,1-7.29981,17.62744,24.92791,24.92791,0,0,1-33.47412,1.72119,23.9989,23.9989,0,0,1-8.72461-14.36328l-.35644-1.83985H65.27637l.41552,1.00879a12.68929,12.68929,0,0,0,1.81055,3.3833,12.833,12.833,0,0,0,2.7002,2.6709,11.917,11.917,0,0,0,3.3833,1.72119,12.50959,12.50959,0,0,0,3.85742.59327,11.99,11.99,0,0,0,8.78418-3.67969A12.057,12.057,0,0,0,89.90723,24.98682ZM77.44336,40.59619a15.47088,15.47088,0,0,1-4.481-.65283A15.09884,15.09884,0,0,1,68.92676,38.044a16.50664,16.50664,0,0,1-3.35352-2.96729,15.58186,15.58186,0,0,1-2.4331-3.85791H56.49268A21.74231,21.74231,0,0,0,77.44336,46.82812,21.03477,21.03477,0,0,0,92.875,40.418a21.03749,21.03749,0,0,0,6.40967-15.43115A21.03437,21.03437,0,0,0,92.875,9.55566,21.80739,21.80739,0,0,0,64.38623,7.478a21.5164,21.5164,0,0,0-7.89355,11.27685h6.64746a15.55521,15.55521,0,0,1,2.4331-3.85791,16.46213,16.46213,0,0,1,3.35352-2.96728,15.06864,15.06864,0,0,1,4.03564-1.89942,15.42127,15.42127,0,0,1,4.481-.65283,15.03721,15.03721,0,0,1,11.03955,4.56983,15.03722,15.03722,0,0,1,4.56982,11.03955,15.04,15.04,0,0,1-4.56982,11.03906A15.04144,15.04144,0,0,1,77.44336,40.59619Z"/><path d="M156.356,15.72314q0,6.82618-4.03614,10.86133a15.7114,15.7114,0,0,1-7.478,4.09522,18.03786,18.03786,0,0,1-4.09522.65283H118.90527V50.0874H106.38232V.11377h34.36426a15.59879,15.59879,0,0,1,4.03565.59375,15.61256,15.61256,0,0,1,7.47851,4.03564Q156.35571,8.83813,156.356,15.72314Zm-3.08643,0q0-6.05346-3.73926-9.25878a13.07263,13.07263,0,0,0-8.78369-3.20508H109.52783V46.94189h6.23194V28.24609h24.98681a12.99452,12.99452,0,0,0,8.72461-3.20459Q153.2688,21.77783,153.26953,15.72314Zm-6.291,0a5.72438,5.72438,0,0,1-2.13672,4.80762,6.37038,6.37038,0,0,1-4.09522,1.42432H115.75977V9.49121h24.98681a6.30593,6.30593,0,0,1,4.03565,1.36524A5.72723,5.72723,0,0,1,146.97852,15.72314Zm-3.08643,0a2.789,2.789,0,0,0-1.30566-2.61132,3.33573,3.33573,0,0,0-1.83985-.53418H118.90527v6.291h21.84131a3.12954,3.12954,0,0,0,2.31446-.83056A3.12911,3.12911,0,0,0,143.89209,15.72314Z"/></g></g></svg>